<svg width="32" height="32" viewBox="0 0 32 32" fill="none" xmlns="http://www.w3.org/2000/svg">
<path fill-rule="evenodd" clip-rule="evenodd" d="M16.4331 3C9.01971 3 3 9.0192 3 16.4331C3 23.8471 9.0192 29.8663 16.4331 29.8663C23.8471 29.8663 29.8663 23.8476 29.8663 16.4331C29.8663 9.01971 23.8476 3 16.4331 3ZM16.4331 4.79115C22.8586 4.79115 28.0755 10.0076 28.0755 16.433C28.0755 22.8585 22.8591 28.0754 16.4331 28.0754C10.0082 28.0754 4.79126 22.859 4.79126 16.433C4.79126 10.0081 10.0077 4.79115 16.4331 4.79115ZM20.2395 16.8815C18.7569 16.8815 17.5537 18.085 17.5537 19.5673C17.5537 21.0494 18.7569 22.253 20.2391 22.253C21.7216 22.253 22.9248 21.0495 22.9248 19.5673C22.9248 18.0851 21.7216 16.8815 20.2391 16.8815H20.2395ZM18.1191 11.6013L12.7458 20.9078C12.4987 21.3355 12.6456 21.884 13.0739 22.1307C13.5016 22.3778 14.05 22.2313 14.2967 21.8032L19.67 12.4967C19.917 12.069 19.7706 11.5206 19.3425 11.2733C18.9144 11.0262 18.3664 11.173 18.1191 11.6013L18.1191 11.6013ZM20.2395 18.6728C20.7335 18.6728 21.1344 19.0733 21.1344 19.5674C21.1344 20.0614 20.7335 20.462 20.2395 20.462C19.7461 20.462 19.3449 20.0614 19.3449 19.5674C19.3449 19.0733 19.7459 18.6728 20.2395 18.6728ZM12.6275 10.6134C11.1454 10.6134 9.94178 11.8166 9.94178 13.2991C9.94178 14.7813 11.1453 15.9849 12.6275 15.9849C14.1098 15.9849 15.3133 14.7814 15.3133 13.2991C15.3133 11.8166 14.1098 10.6134 12.6275 10.6134ZM12.6275 12.4041C13.1215 12.4041 13.5221 12.8051 13.5221 13.2991C13.5221 13.7925 13.1215 14.1937 12.6275 14.1937C12.1341 14.1937 11.7329 13.7927 11.7329 13.2991C11.7329 12.8051 12.1339 12.4041 12.6275 12.4041Z" fill="black"/>
</svg>
