<svg width="32" height="32" viewBox="0 0 32 32" fill="none" xmlns="http://www.w3.org/2000/svg">
<path d="M28.7551 8.29915C28.2369 7.6368 27.4302 7.2336 26.5951 7.2336H9.05595L8.5087 5.10235C8.19189 3.86405 7.09745 3 5.8304 3H2.89275C2.40317 3 2 3.40319 2 3.89275C2 4.38232 2.40319 4.7855 2.89275 4.7855H5.8304C6.26232 4.7855 6.6368 5.07358 6.7521 5.5055L10.2657 19.5023C10.5825 20.7406 11.677 21.6046 12.944 21.6046H24.4352C25.7025 21.6046 26.8256 20.7406 27.1135 19.5023L29.2735 10.6319C29.475 9.8255 29.3022 8.96165 28.755 8.29915H28.7551ZM27.5168 10.2287L25.3568 19.0991C25.2417 19.5311 24.8673 19.8191 24.4351 19.8191H12.9439C12.512 19.8191 12.1375 19.5311 12.0222 19.0991L9.5167 9.04795H26.5951C26.8832 9.04795 27.171 9.19199 27.3438 9.42241C27.5168 9.65284 27.6032 9.94091 27.5168 10.2288L27.5168 10.2287Z" fill="black"/>
<path d="M13.5488 22.7567C11.9071 22.7567 10.5537 24.1103 10.5537 25.7518C10.5537 27.3935 11.9073 28.7469 13.5488 28.7469C15.1905 28.7471 16.5441 27.3935 16.5441 25.7518C16.5441 24.1103 15.1905 22.7567 13.5488 22.7567ZM13.5488 26.9327C12.8865 26.9327 12.368 26.4144 12.368 25.7518C12.368 25.0895 12.8863 24.571 13.5488 24.571C14.2112 24.571 14.7297 25.0893 14.7297 25.7518C14.7297 26.3854 14.1824 26.9327 13.5488 26.9327Z" fill="black"/>
<path d="M23.456 22.7567C21.8143 22.7567 20.4609 24.1103 20.4609 25.7518C20.4609 27.3935 21.8145 28.7469 23.456 28.7469C25.0977 28.7469 26.4511 27.3933 26.4511 25.7518C26.4224 24.1103 25.0977 22.7567 23.456 22.7567ZM23.456 26.9327C22.7937 26.9327 22.2752 26.4144 22.2752 25.7518C22.2752 25.0895 22.7935 24.571 23.456 24.571C24.1184 24.571 24.6369 25.0893 24.6369 25.7518C24.6369 26.3854 24.0896 26.9327 23.456 26.9327Z" fill="black"/>
</svg>
