<svg width="32" height="32" viewBox="0 0 32 32" fill="none" xmlns="http://www.w3.org/2000/svg">
<path fill-rule="evenodd" clip-rule="evenodd" d="M19.0629 5.5V15.125H13.1019C12.6187 15.125 12.2269 15.5167 12.2269 16C12.2269 16.4833 12.6187 16.875 13.1019 16.875H19.0629V26.5H5.50036V5.5H19.0629ZM20.8129 5.0625V15.125H25.2595L22.5794 12.7129C22.2202 12.3896 22.1911 11.8364 22.5144 11.4772C22.8376 11.118 23.3909 11.0888 23.7501 11.4121L27.7638 15.0244C28.3431 15.5458 28.3431 16.4542 27.7638 16.9756L23.7501 20.5879C23.3909 20.9112 22.8376 20.8821 22.5144 20.5229C22.1911 20.1636 22.2202 19.6104 22.5794 19.2871L25.2595 16.875H20.8129V26.9375C20.8129 27.6624 20.2252 28.25 19.5004 28.25H5.06286C4.33798 28.25 3.75036 27.6624 3.75036 26.9375V5.0625C3.75036 4.33763 4.33798 3.75 5.06286 3.75H19.5004C20.2252 3.75 20.8129 4.33763 20.8129 5.0625Z" fill="#0068FF"/>
</svg>
