<svg width="32" height="32" viewBox="0 0 32 32" fill="none" xmlns="http://www.w3.org/2000/svg">
<path d="M16.6171 23.5893C23.691 17.3315 25.6 15.0074 25.6 11.8379C25.6 8.99228 23.4086 6.80045 20.563 6.80045C18.9947 6.80045 17.4086 7.5425 16.3873 8.74992L16.0054 9.20114C15.8456 9.38991 15.5545 9.38991 15.3948 9.20114L15.0129 8.74992C13.9917 7.54242 12.4054 6.80045 10.8372 6.80045C7.99156 6.80045 5.80016 8.99228 5.80016 11.8379C5.80016 15.0074 7.70902 17.3314 14.8219 23.6258L15.7004 24.5013L16.6171 23.5893ZM20.563 5.00002C24.4026 5.00002 27.4 7.99788 27.4 11.8375C27.4 14.0306 26.4939 16.0637 24.6582 18.2991C23.2311 20.0365 21.6202 21.5661 17.8487 24.9005L15.9823 26.76C15.8262 26.9155 15.5738 26.9155 15.4177 26.7601L15.0647 26.4085L13.5902 24.937C9.77994 21.5661 8.16893 20.0364 6.74179 18.2991C4.90611 16.0638 4 14.0305 4 11.8374C4 7.99786 6.99754 5 10.837 5C12.6095 5 14.374 5.69643 15.6999 6.88165C17.0258 5.69643 18.7905 5.00002 20.563 5.00002Z" fill="black"/>
</svg>
