<svg width="32" height="32" viewBox="0 0 32 32" fill="none" xmlns="http://www.w3.org/2000/svg">
<path d="M27.92 24.08L25.68 11.08C25.527 9.97329 24.9872 8.95646 24.1562 8.20967C23.3252 7.46288 22.2567 7.03435 21.14 7H21C21 5.67392 20.4732 4.40215 19.5356 3.46447C18.5979 2.52678 17.3261 2 16 2C14.6739 2 13.4022 2.52678 12.4645 3.46447C11.5268 4.40215 11 5.67392 11 7H10.86C9.74332 7.03435 8.67481 7.46288 7.84383 8.20967C7.01285 8.95646 6.47303 9.97329 6.32003 11.08L4.08003 24.08C3.94245 24.8342 3.97235 25.6094 4.16762 26.3507C4.3629 27.0921 4.71876 27.7815 5.21003 28.37C5.62395 28.8753 6.14404 29.2833 6.73338 29.565C7.32271 29.8467 7.96684 29.9952 8.62003 30H23.38C24.0332 29.9952 24.6773 29.8467 25.2667 29.565C25.856 29.2833 26.3761 28.8753 26.79 28.37C27.2813 27.7815 27.6372 27.0921 27.8324 26.3507C28.0277 25.6094 28.0576 24.8342 27.92 24.08V24.08ZM16 4C16.7957 4 17.5587 4.31607 18.1213 4.87868C18.684 5.44129 19 6.20435 19 7H13C13 6.20435 13.3161 5.44129 13.8787 4.87868C14.4413 4.31607 15.2044 4 16 4V4ZM25.26 27.08C25.0341 27.3627 24.7483 27.5918 24.4232 27.7509C24.0982 27.9099 23.7419 27.995 23.38 28H8.62003C8.25817 27.995 7.9019 27.9099 7.57684 27.7509C7.25178 27.5918 6.96599 27.3627 6.74003 27.08C6.43529 26.7153 6.21531 26.2876 6.09599 25.8276C5.97667 25.3676 5.96097 24.8868 6.05003 24.42L8.29003 11.42C8.36447 10.7784 8.66316 10.1838 9.13338 9.74098C9.60361 9.2982 10.2151 9.03577 10.86 9H21.14C21.7849 9.03577 22.3964 9.2982 22.8667 9.74098C23.3369 10.1838 23.6356 10.7784 23.71 11.42L25.95 24.42C26.0391 24.8868 26.0234 25.3676 25.9041 25.8276C25.7847 26.2876 25.5648 26.7153 25.26 27.08V27.08Z" fill="#0068FF"/>
</svg>
