<svg width="32" height="32" viewBox="0 0 32 32" fill="none" xmlns="http://www.w3.org/2000/svg">
<path d="M15.9521 19.328C11.7281 19.328 8.28809 15.888 8.28809 11.664C8.28809 7.44 11.7281 4 15.9521 4C20.1761 4 23.6161 7.44 23.6161 11.664C23.6161 15.888 20.1761 19.328 15.9521 19.328ZM15.9521 6.184C12.9361 6.184 10.4801 8.64 10.4801 11.656C10.4801 14.672 12.9361 17.128 15.9521 17.128C18.9681 17.128 21.4241 14.672 21.4241 11.656C21.4241 8.64 18.9681 6.184 15.9521 6.184Z" fill="#0068FF"/>
<path d="M26.8498 26.9935C26.9098 27.5959 26.4133 28.088 25.808 28.088C25.2027 28.088 24.7192 27.5948 24.6441 26.9942C24.1045 22.6769 20.4136 19.328 15.952 19.328C11.4904 19.328 7.79946 22.6769 7.25987 26.9942C7.1848 27.5948 6.7013 28.088 6.096 28.088C5.4907 28.088 4.99423 27.5959 5.05423 26.9935C5.60491 21.4657 10.2813 17.136 15.952 17.136C21.6227 17.136 26.2991 21.4657 26.8498 26.9935Z" fill="#0068FF"/>
</svg>
