<svg width="32" height="32" viewBox="0 0 32 32" fill="none" xmlns="http://www.w3.org/2000/svg">
<path d="M16 5.67995C18.737 5.67995 21.3618 6.76727 23.2972 8.70268C25.2326 10.6379 26.32 13.2631 26.32 15.9999C26.32 18.7368 25.2326 21.3617 23.2972 23.2971C21.362 25.2326 18.7368 26.3199 16 26.3199C13.2632 26.3199 10.6382 25.2326 8.70277 23.2971C6.76735 21.3619 5.68003 18.7368 5.68003 15.9999C5.68003 13.2631 6.76735 10.6381 8.70277 8.70268C10.638 6.76727 13.2632 5.67995 16 5.67995ZM16 4C12.8174 4 9.76519 5.26428 7.51477 7.51477C5.26428 9.7651 4 12.8175 4 16C4 19.1825 5.26428 22.2348 7.51477 24.4852C9.7651 26.7357 12.8175 28 16 28C19.1825 28 22.2348 26.7357 24.4852 24.4852C26.7357 22.2349 28 19.1825 28 16C28 12.8175 26.7357 9.76519 24.4852 7.51477C22.2349 5.26428 19.1825 4 16 4V4Z" fill="black"/>
<path d="M16.9998 17.9961C16.9998 18.8986 16.9858 19.8013 16.9998 20.7038C17.0037 21.0888 16.873 21.4556 16.6438 21.7024C16.4147 21.9492 16.1115 22.0499 15.8184 21.9766C15.7283 21.9578 15.6396 21.9276 15.5542 21.8864C15.3947 21.8162 15.256 21.6841 15.157 21.5084C15.058 21.3328 15.0036 21.1219 15.001 20.9047V20.679V15.3017V15.3018C14.9916 15.0371 15.0492 14.7755 15.1651 14.5566C15.2808 14.3376 15.4488 14.1731 15.6434 14.0878C15.8503 13.9852 16.0775 13.9721 16.2906 14.0507C16.5038 14.1292 16.6913 14.2951 16.8249 14.5233C16.9419 14.7215 17.0035 14.9648 16.9998 15.2138V17.996L16.9998 17.9961Z" fill="black"/>
<path d="M16.9999 11.0052C16.9986 11.2713 16.8911 11.5259 16.7016 11.7126C16.5119 11.8993 16.2556 12.0028 15.9895 11.9999C15.7233 11.9972 15.4694 11.8884 15.2837 11.6978C15.098 11.5071 14.9959 11.2503 15.0001 10.9842C15.0043 10.7181 15.1145 10.4646 15.3061 10.2799C15.4977 10.0952 15.7551 9.99454 16.0212 10.0002C16.284 10.0046 16.5343 10.1127 16.7178 10.3009C16.9011 10.4892 17.0026 10.7423 17 11.0051L16.9999 11.0052Z" fill="black"/>
</svg>
