<svg width="6" height="10" viewBox="0 0 6 10" fill="none" xmlns="http://www.w3.org/2000/svg">
<path d="M5.99911 5.22886C5.99252 5.42484 5.91428 5.61177 5.77902 5.75386L1.93902 9.75386C1.79181 9.90709 1.58979 9.9956 1.37742 9.99984C1.16492 10.0041 0.959563 9.92372 0.806334 9.77652C0.653208 9.62931 0.564706 9.42717 0.560574 9.2148C0.556333 9.00241 0.636802 8.79694 0.784011 8.64383L4.08915 5.19897L0.784297 1.75412C0.585971 1.54775 0.512756 1.25132 0.592331 0.97643C0.671907 0.701541 0.891987 0.490058 1.1699 0.421401C1.44769 0.352876 1.74099 0.437696 1.93922 0.644058L5.77922 4.64406L5.77933 4.64406C5.92888 4.8012 6.00834 5.01237 5.9993 5.22912L5.99911 5.22886Z" fill="#00215E"/>
</svg>
