<svg width="17" height="11" viewBox="0 0 17 11" fill="none" xmlns="http://www.w3.org/2000/svg">
<path d="M0.179918 5.29867C0.186615 5.12708 0.257263 4.92869 0.374954 4.80363L4.21504 0.7235C4.47519 0.489628 4.97425 0.3932 5.26504 0.663568C5.55148 0.929917 5.54294 1.44623 5.25767 1.71357L2.55767 4.57865H15.78C16.1776 4.57865 16.5 4.90109 16.5 5.2987C16.5 5.69631 16.1776 6.01874 15.78 6.01874H2.55767L5.25767 8.88382C5.50343 9.12992 5.5488 9.66464 5.26504 9.93382C4.98144 10.2032 4.46464 10.1171 4.21504 9.87373L0.374954 5.7936C0.243536 5.65398 0.179583 5.49008 0.179918 5.29855V5.29867Z" fill="#787878"/>
</svg>
