<svg width="32" height="32" viewBox="0 0 32 32" fill="none" xmlns="http://www.w3.org/2000/svg">
<path d="M24.1516 8.8303V24.8239C24.1516 26.5683 22.7199 28 20.9755 28H11.1761C9.43176 28 8.00005 26.5683 8.00005 24.8239V15.9849C8.41832 16.0543 8.85019 16.0611 9.27069 16.0067V24.8241C9.27069 25.8749 10.1254 26.7296 11.1762 26.7296H20.9755C22.0263 26.7296 22.881 25.8749 22.881 24.8241V9.72873H18.4229V5.2706H11.1761C10.1254 5.2706 9.27065 6.12535 9.27065 7.1761L9.27069 16.0067C8.79724 16.4858 8.4191 15.9371 8.00005 16.0067L8 7.1761C8 5.43171 9.43171 4 11.1761 4H19.321L24.1516 8.8303Z" fill="black"/>
<line x1="11.5484" y1="24.5502" x2="21.0942" y2="24.5502" stroke="black" stroke-width="0.8" stroke-linecap="round"/>
<line x1="11.5484" y1="22.6693" x2="21.0942" y2="22.6693" stroke="black" stroke-width="0.8" stroke-linecap="round"/>
<line x1="11.5484" y1="20.7885" x2="21.0942" y2="20.7885" stroke="black" stroke-width="0.8" stroke-linecap="round"/>
<line x1="11.5484" y1="18.9066" x2="21.0942" y2="18.9066" stroke="black" stroke-width="0.8" stroke-linecap="round"/>
<line x1="11.5484" y1="17.0268" x2="21.0942" y2="17.0268" stroke="black" stroke-width="0.8" stroke-linecap="round"/>
<line x1="11.5484" y1="15.1459" x2="21.0942" y2="15.1459" stroke="black" stroke-width="0.8" stroke-linecap="round"/>
<line x1="11.5484" y1="13.2641" x2="21.0942" y2="13.2641" stroke="black" stroke-width="0.8" stroke-linecap="round"/>
<line x1="11.5484" y1="11.3832" x2="21.0942" y2="11.3832" stroke="black" stroke-width="0.8" stroke-linecap="round"/>
<line x1="11.5484" y1="9.50234" x2="16.3916" y2="9.50234" stroke="black" stroke-width="0.8" stroke-linecap="round"/>
<line x1="11.5484" y1="7.62148" x2="16.3916" y2="7.62148" stroke="black" stroke-width="0.8" stroke-linecap="round"/>
</svg>
