<svg width="36" height="36" viewBox="0 0 36 36" fill="none" xmlns="http://www.w3.org/2000/svg">
<path d="M31.5128 13.0631V24.3624C30.922 23.755 30.1104 23.4126 29.2628 23.413H27.9128V10.1156C27.9142 10.0479 27.9112 9.98044 27.9038 9.91314H28.3628C29.1979 9.91415 29.9987 10.2462 30.5891 10.8369C31.1797 11.4273 31.5118 12.228 31.5128 13.0631V13.0631ZM8.11282 20.7131H19.8128V8.11307H22.5128V20.7131H26.1128C26.429 20.7135 26.7394 20.7972 27.0128 20.9561V9.01289C27.013 8.53537 26.8234 8.07751 26.4857 7.74003C26.1482 7.40233 25.6903 7.21269 25.2128 7.21289H9.01282C7.81993 7.2149 6.67642 7.68961 5.83309 8.53317C4.98956 9.37649 4.51482 10.52 4.51282 11.7129V22.5175C5.36098 21.3819 6.69534 20.7131 8.11282 20.7131V20.7131ZM29.2628 24.3131H8.11282C7.79119 24.3131 7.49408 24.4846 7.33337 24.7631C7.17265 25.0415 7.17265 25.3846 7.33337 25.6631C7.49408 25.9415 7.7912 26.1131 8.11282 26.1131H29.2628C29.5113 26.1131 29.7128 26.3146 29.7128 26.5631C29.7128 26.8116 29.5113 27.0131 29.2628 27.0131H8.11282C7.46975 27.0131 6.8755 26.6699 6.55391 26.1131C6.23249 25.5562 6.23249 24.8699 6.55391 24.3131C6.87554 23.7562 7.46981 23.4131 8.11282 23.4131H26.1128C26.4344 23.4131 26.7316 23.2415 26.8923 22.9631C27.053 22.6846 27.053 22.3415 26.8923 22.0631C26.7316 21.7846 26.4344 21.6131 26.1128 21.6131H8.11282C6.82669 21.6131 5.63823 22.2993 4.99517 23.4131C4.3521 24.5268 4.3521 25.8993 4.99517 27.0131C5.63823 28.1268 6.82669 28.8131 8.11282 28.8131H29.2628C30.0666 28.8131 30.8095 28.3842 31.2113 27.6881C31.6133 26.992 31.6133 26.1342 31.2113 25.4381C30.8095 24.742 30.0666 24.3131 29.2628 24.3131Z" fill="black"/>
</svg>
