<svg width="24" height="24" viewBox="0 0 24 24" fill="none" xmlns="http://www.w3.org/2000/svg">
<path fill-rule="evenodd" clip-rule="evenodd" d="M12.448 2C6.682 2 2 6.6816 2 12.448C2 18.2144 6.6816 22.896 12.448 22.896C18.2144 22.896 22.896 18.2148 22.896 12.448C22.896 6.682 18.2148 2 12.448 2V2ZM12.448 3.39312C17.4456 3.39312 21.5032 7.45032 21.5032 12.4479C21.5032 17.4455 17.446 21.5031 12.448 21.5031C7.4508 21.5031 3.3932 17.4459 3.3932 12.4479C3.3932 7.45072 7.4504 3.39312 12.448 3.39312ZM15.4085 12.7967C14.2554 12.7967 13.3196 13.7328 13.3196 14.8856C13.3196 16.0384 14.2554 16.9746 15.4082 16.9746C16.5613 16.9746 17.4971 16.0385 17.4971 14.8856C17.4971 13.7328 16.5613 12.7967 15.4082 12.7967H15.4085ZM13.7593 8.68992L9.58008 15.9283C9.38789 16.261 9.50211 16.6875 9.83524 16.8794C10.1679 17.0716 10.5944 16.9577 10.7863 16.6247L14.9655 9.38631C15.1577 9.05366 15.0438 8.62711 14.7108 8.43475C14.3779 8.24256 13.9516 8.35678 13.7593 8.68991L13.7593 8.68992ZM15.4085 14.1899C15.7927 14.1899 16.1046 14.5015 16.1046 14.8857C16.1046 15.27 15.7927 15.5815 15.4085 15.5815C15.0247 15.5815 14.7127 15.27 14.7127 14.8857C14.7127 14.5015 15.0246 14.1899 15.4085 14.1899ZM9.48808 7.92152C8.33528 7.92152 7.39916 8.85732 7.39916 10.0104C7.39916 11.1632 8.33524 12.0994 9.48808 12.0994C10.6409 12.0994 11.577 11.1633 11.577 10.0104C11.577 8.85732 10.6409 7.92152 9.48808 7.92152V7.92152ZM9.48808 9.31432C9.8723 9.31432 10.1839 9.6262 10.1839 10.0104C10.1839 10.3942 9.87232 10.7062 9.48808 10.7062C9.10433 10.7062 8.79228 10.3943 8.79228 10.0104C8.79228 9.62618 9.10416 9.31432 9.48808 9.31432V9.31432Z" fill="white"/>
</svg>
