<svg width="22" height="25" viewBox="0 0 22 25" fill="none" xmlns="http://www.w3.org/2000/svg">
<path d="M11.0002 15.328C6.77618 15.328 3.33618 11.888 3.33618 7.664C3.33618 3.44 6.77618 0 11.0002 0C15.2242 0 18.6642 3.44 18.6642 7.664C18.6642 11.888 15.2242 15.328 11.0002 15.328ZM11.0002 2.184C7.98418 2.184 5.52818 4.64 5.52818 7.656C5.52818 10.672 7.98418 13.128 11.0002 13.128C14.0162 13.128 16.4722 10.672 16.4722 7.656C16.4722 4.64 14.0162 2.184 11.0002 2.184Z" fill="white"/>
<path d="M21.8979 22.9935C21.9579 23.5959 21.4614 24.088 20.8561 24.088C20.2508 24.088 19.7673 23.5948 19.6922 22.9942C19.1526 18.6769 15.4617 15.328 11.0001 15.328C6.53846 15.328 2.84755 18.6769 2.30796 22.9942C2.23289 23.5948 1.7494 24.088 1.1441 24.088C0.538792 24.088 0.0423225 23.5959 0.102325 22.9935C0.653005 17.4657 5.32941 13.136 11.0001 13.136C16.6708 13.136 21.3472 17.4657 21.8979 22.9935Z" fill="white"/>
</svg>
