<svg width="48" height="48" viewBox="0 0 48 48" fill="none" xmlns="http://www.w3.org/2000/svg">
<path d="M38.1859 33.3155L31.3507 29.7827C30.3907 29.2834 29.2004 29.5523 28.5476 30.3971L26.0517 33.6227C23.5941 32.3171 21.751 31.0499 19.6006 28.8995C17.2965 26.5954 16.0678 24.714 14.839 22.333L18.0262 19.8372C18.871 19.1844 19.1396 17.994 18.6406 17.034L15.1078 10.2372C14.4934 9.04682 12.9575 8.66268 11.8437 9.39235L7.50443 12.3107C6.5061 13.0017 5.92997 14.1538 6.00683 15.3441C6.08371 16.5731 6.23719 18.1473 6.54442 19.2225C7.81162 24.0993 10.8452 29.1297 15.146 33.3921C19.4084 37.6545 24.4388 40.6881 29.3156 41.9937C30.3908 42.2626 31.9653 42.4161 33.2325 42.5313C34.4614 42.6081 35.6518 42.032 36.3046 40.9954L39.1462 36.5795C39.7602 35.4275 39.3377 33.9299 38.1857 33.3154L38.1859 33.3155Z" fill="white"/>
<path d="M24.3619 20.3363C25.2067 20.5666 26.0515 21.0274 26.7043 21.7187C27.3953 22.4098 27.8563 23.2163 28.0867 24.0611C28.2787 24.7522 28.9315 25.2132 29.6611 25.1746H29.8146C30.8129 25.1362 31.5425 24.1762 31.2739 23.2162C30.8898 21.8338 30.1604 20.4897 29.0467 19.4146C27.9332 18.3011 26.6274 17.5714 25.245 17.1874C24.285 16.9184 23.325 17.6481 23.2867 18.6466V18.8001C23.2098 19.4914 23.6705 20.1442 24.3619 20.3362L24.3619 20.3363Z" fill="white"/>
<path d="M24.8226 14.8067C26.9347 15.1908 28.9698 16.1891 30.5826 17.8019C32.2337 19.453 33.2323 21.4498 33.5778 23.5619C33.7313 24.3298 34.4226 24.906 35.2289 24.8674H35.344C36.304 24.8291 36.9951 23.9458 36.8033 23.0243C36.304 20.2595 34.9985 17.6098 32.8864 15.4595C30.7361 13.3092 28.1248 12.0036 25.3216 11.5426C24.4 11.3891 23.5168 12.0802 23.4785 13.0019V13.1171C23.4788 13.9621 24.0547 14.6532 24.8227 14.8067L24.8226 14.8067Z" fill="white"/>
<path d="M42.41 22.7939C41.8341 18.685 39.9907 14.7299 36.8421 11.5811C33.6931 8.43215 29.7381 6.58902 25.6293 6.01316C24.7076 5.89798 23.8627 6.55074 23.8245 7.51076V7.66424C23.7861 8.50904 24.4003 9.2001 25.2069 9.3153C28.6245 9.77602 31.8885 11.3505 34.4997 13.9618C37.1107 16.5729 38.6469 19.8753 39.1462 23.2546C39.2614 24.0612 39.9527 24.6754 40.7973 24.637H40.9507C41.8341 24.5604 42.5252 23.7156 42.41 22.7939L42.41 22.7939Z" fill="white"/>
</svg>
