<svg width="32" height="29" viewBox="0 0 32 29" fill="none" xmlns="http://www.w3.org/2000/svg">
<path d="M30.528 5.88794C29.9521 5.152 29.0559 4.704 28.128 4.704H8.63999L8.03193 2.33594C7.67992 0.960057 6.46388 0 5.05605 0H1.79199C1.24802 0 0.800049 0.447989 0.800049 0.991943C0.800049 1.53591 1.24804 1.98389 1.79199 1.98389H5.05605C5.53596 1.98389 5.95205 2.30398 6.08016 2.78389L9.98416 18.3359C10.3362 19.7118 11.5522 20.6718 12.96 20.6718H25.7281C27.1361 20.6718 28.384 19.7118 28.7039 18.3359L31.1039 8.47989C31.3278 7.58389 31.1359 6.62406 30.5278 5.88794H30.528ZM29.1521 8.03194L26.7521 17.8879C26.6242 18.3679 26.2081 18.6879 25.728 18.6879H12.96C12.4801 18.6879 12.064 18.3679 11.9359 17.8879L9.15193 6.71994H28.1279C28.448 6.71994 28.7679 6.87999 28.9599 7.13601C29.1521 7.39204 29.248 7.71212 29.1521 8.03201L29.1521 8.03194Z" fill="white"/>
<path d="M13.6321 21.9519C11.808 21.9519 10.3042 23.4559 10.3042 25.2798C10.3042 27.1039 11.8082 28.6077 13.6321 28.6077C15.4562 28.6079 16.9602 27.1039 16.9602 25.2798C16.9602 23.4559 15.4562 21.9519 13.6321 21.9519ZM13.6321 26.5918C12.8961 26.5918 12.32 26.016 12.32 25.2798C12.32 24.5438 12.8959 23.9677 13.6321 23.9677C14.368 23.9677 14.9441 24.5436 14.9441 25.2798C14.9441 25.9838 14.3361 26.5918 13.6321 26.5918Z" fill="white"/>
<path d="M24.6399 21.9519C22.8158 21.9519 21.312 23.4559 21.312 25.2798C21.312 27.1039 22.816 28.6077 24.6399 28.6077C26.464 28.6077 27.9678 27.1037 27.9678 25.2798C27.9359 23.4559 26.464 21.9519 24.6399 21.9519ZM24.6399 26.5918C23.904 26.5918 23.3278 26.016 23.3278 25.2798C23.3278 24.5438 23.9037 23.9677 24.6399 23.9677C25.3758 23.9677 25.952 24.5436 25.952 25.2798C25.952 25.9838 25.3439 26.5918 24.6399 26.5918Z" fill="white"/>
</svg>
