<svg width="24" height="24" viewBox="0 0 24 24" fill="none" xmlns="http://www.w3.org/2000/svg">
<path d="M21.8096 6.12156C21.4064 5.6064 20.7791 5.2928 20.1296 5.2928H6.48796L6.06232 3.63516C5.81591 2.67204 4.96468 2 3.9792 2H1.69436C1.31358 2 1 2.31359 1 2.69436C1 3.07514 1.31359 3.38872 1.69436 3.38872H3.9792C4.31514 3.38872 4.6064 3.61278 4.69608 3.94872L7.42888 14.8351C7.67529 15.7982 8.52652 16.4703 9.512 16.4703H18.4496C19.4352 16.4703 20.3088 15.7982 20.5327 14.8351L22.2127 7.93592C22.3694 7.30872 22.2351 6.63684 21.8094 6.12156H21.8096ZM20.8464 7.62236L19.1664 14.5216C19.0769 14.8575 18.7857 15.0816 18.4496 15.0816H9.51196C9.17602 15.0816 8.88476 14.8575 8.79508 14.5216L6.84632 6.70396H20.1295C20.3536 6.70396 20.5775 6.81599 20.7119 6.99521C20.8464 7.17443 20.9136 7.39849 20.8464 7.62241L20.8464 7.62236Z" fill="white"/>
<path d="M9.98284 17.3665C8.70596 17.3665 7.65332 18.4193 7.65332 19.696C7.65332 20.9729 8.70612 22.0255 9.98284 22.0255C11.2597 22.0257 12.3125 20.9729 12.3125 19.696C12.3125 18.4193 11.2597 17.3665 9.98284 17.3665V17.3665ZM9.98284 20.6144C9.46768 20.6144 9.0644 20.2113 9.0644 19.696C9.0644 19.1808 9.46752 18.7775 9.98284 18.7775C10.498 18.7775 10.9013 19.1807 10.9013 19.696C10.9013 20.1888 10.4756 20.6144 9.98284 20.6144Z" fill="white"/>
<path d="M17.6879 17.3665C16.411 17.3665 15.3584 18.4193 15.3584 19.696C15.3584 20.9729 16.4112 22.0255 17.6879 22.0255C18.9648 22.0255 20.0174 20.9727 20.0174 19.696C19.9951 18.4193 18.9648 17.3665 17.6879 17.3665V17.3665ZM17.6879 20.6144C17.1728 20.6144 16.7695 20.2113 16.7695 19.696C16.7695 19.1808 17.1726 18.7775 17.6879 18.7775C18.2031 18.7775 18.6064 19.1807 18.6064 19.696C18.6064 20.1888 18.1807 20.6144 17.6879 20.6144V20.6144Z" fill="white"/>
</svg>
