<svg width="140" height="140" viewBox="0 0 140 140" fill="none" xmlns="http://www.w3.org/2000/svg">
<path d="M127.088 55.1969L123.338 53.3219C123.078 53.1921 122.791 53.1248 122.5 53.125H94.6019C93.4444 53.125 92.3129 53.4681 91.3504 54.1111C90.3882 54.754 89.638 55.6681 89.1949 56.7374C88.7521 57.8067 88.6362 58.9834 88.8619 60.1186C89.0879 61.2539 89.6453 62.2966 90.4638 63.115L94.2606 66.9137L93.3231 73.5025C92.3558 74.2362 91.5694 75.1816 91.0244 76.2662L89.125 80.0406C85.1869 87.9473 83.1332 96.6588 83.125 105.492C83.1261 110.663 83.4934 115.828 84.2237 120.948C84.5166 122.936 85.5126 124.754 87.0312 126.071C88.5498 127.388 90.49 128.116 92.5 128.125H109.375C111.364 128.125 113.272 127.335 114.678 125.928C116.085 124.522 116.875 122.614 116.875 120.625V98.125C116.879 96.6421 116.437 95.1923 115.605 93.9642C114.774 92.7362 113.592 91.7869 112.214 91.24L109.36 90.1C108.81 89.8821 108.338 89.5036 108.006 89.0134C107.674 88.5235 107.498 87.9449 107.5 87.3531C107.5 87.1587 107.519 86.9646 107.556 86.7738L109.272 78.1994C109.496 77.0821 109.35 75.9224 108.857 74.8951C108.364 73.8677 107.55 73.0289 106.538 72.505L106.128 69.6381C107.753 72.19 109.91 74.3616 112.45 76.0047C114.991 77.6477 117.856 78.7238 120.85 79.1594L122.236 79.3563C122.323 79.369 122.411 79.3752 122.5 79.375C122.871 79.375 123.233 79.2649 123.542 79.0589C123.85 78.8528 124.09 78.5601 124.232 78.2176C124.374 77.875 124.411 77.4979 124.339 77.1344C124.266 76.7706 124.088 76.4367 123.826 76.1744L121.63 73.9769C119.038 71.3965 117.402 68.0097 116.993 64.375H122.5C122.791 64.3752 123.078 64.3079 123.338 64.1781L127.088 62.3031C127.4 62.1473 127.662 61.9079 127.845 61.6114C128.028 61.315 128.125 60.9734 128.125 60.625V56.875C128.125 56.5266 128.028 56.185 127.845 55.8886C127.662 55.5921 127.4 55.3527 127.088 55.1969ZM93.115 60.4637C92.8208 60.1697 92.6204 59.7951 92.5392 59.3873C92.458 58.9793 92.4996 58.5565 92.6588 58.1723C92.818 57.7881 93.0876 57.4598 93.4336 57.2288C93.7793 56.9978 94.186 56.8748 94.6019 56.875H116.875V60.625H111.25C110.959 60.6248 110.672 60.6921 110.412 60.8219L103.307 64.375H97.0263L93.115 60.4637ZM97.8756 68.125H102.124L102.661 71.875H98.125C97.8599 71.8799 97.5951 71.8981 97.3319 71.9294L97.8756 68.125ZM86.875 105.492C86.875 104.284 86.9294 103.079 87.0138 101.875H113.125V113.125H87.1544C86.9706 110.581 86.875 108.031 86.875 105.492ZM109.375 124.375H92.5C91.3913 124.37 90.3213 123.968 89.4835 123.242C88.6459 122.516 88.0962 121.514 87.9344 120.417C87.7675 119.241 87.6231 118.06 87.4938 116.875H113.125V120.625C113.125 121.619 112.73 122.573 112.027 123.277C111.323 123.98 110.369 124.375 109.375 124.375ZM107.967 93.5819L110.821 94.7238C111.502 94.993 112.087 95.4617 112.498 96.0685C112.909 96.6754 113.128 97.3921 113.125 98.125H87.415C88.2102 92.4186 89.9228 86.8784 92.4869 81.7188L94.375 77.9425C94.7211 77.2444 95.2559 76.6574 95.9187 76.2477C96.5815 75.8382 97.3457 75.6224 98.125 75.625H104.088C104.495 75.625 104.886 75.7868 105.174 76.0746C105.462 76.3626 105.624 76.7532 105.625 77.1606C105.626 77.2621 105.615 77.3631 105.595 77.4625L103.879 86.0387C103.573 87.5755 103.814 89.1709 104.561 90.5485C105.307 91.9263 106.512 92.9993 107.967 93.5819ZM116.875 74.1625C113.172 72.5373 110.154 69.6668 108.346 66.0494L111.693 64.375H113.221C113.539 67.9062 114.801 71.2866 116.875 74.1625ZM124.375 59.4663L122.057 60.625H120.625V56.875H122.057L124.375 58.0338V59.4663Z" fill="#0068FF"/>
<path d="M75.625 128.125C77.6142 128.125 79.5218 127.335 80.9283 125.928C82.3349 124.522 83.125 122.614 83.125 120.625C83.1254 112.986 82.0602 105.384 79.96 98.0387L79.6281 96.8744C79.366 95.9553 79.3067 94.9902 79.4539 94.0459C79.6013 93.1017 79.9518 92.2006 80.4812 91.405L81.3606 90.0925C82.6744 88.1297 83.2859 85.7804 83.0956 83.4261C82.9053 81.0719 81.9244 78.8513 80.3125 77.125L81.1488 62.5H83.125C83.6223 62.5 84.0993 62.3024 84.4508 61.9508C84.8024 61.5993 85 61.1222 85 60.625V49.375C85 48.8778 84.8024 48.4007 84.4508 48.0492C84.0993 47.6976 83.6223 47.5 83.125 47.5H81.25V38.125C81.2352 33.8174 79.9904 29.6037 77.6624 25.9796C75.3342 22.3554 72.0196 19.4714 68.1081 17.6669C68.1081 17.6088 68.125 17.5563 68.125 17.5C68.125 16.0082 67.5323 14.5774 66.4774 13.5225C65.4226 12.4676 63.9917 11.875 62.5 11.875H36.25C34.7582 11.875 33.3274 12.4676 32.2726 13.5225C31.2177 14.5774 30.625 16.0082 30.625 17.5C30.625 17.5563 30.64 17.6087 30.6419 17.665C26.7306 19.4702 23.4161 22.3546 21.0881 25.979C18.76 29.6035 17.5152 33.8174 17.5 38.125V47.5H15.625C15.1277 47.5 14.6508 47.6976 14.2992 48.0492C13.9476 48.4007 13.75 48.8778 13.75 49.375V60.625C13.75 61.1222 13.9476 61.5993 14.2992 61.9508C14.6508 62.3024 15.1277 62.5 15.625 62.5H17.6031L18.3719 75.9569C18.1086 76.12 17.8907 76.3471 17.7383 76.6167C17.5859 76.8865 17.5039 77.1902 17.5 77.5V83.125C17.0027 83.125 16.5258 83.3226 16.1742 83.6742C15.8226 84.0257 15.625 84.5027 15.625 85V92.0875C13.1668 97.1693 11.8851 102.74 11.875 108.385V120.625C11.875 122.614 12.6652 124.522 14.0717 125.928C15.4782 127.335 17.3859 128.125 19.375 128.125H75.625ZM30.625 86.875V90.625H19.375V86.875H30.625ZM18.6962 94.375H31.8212L38.2281 99.715C40.0356 101.221 41.2594 103.312 41.6875 105.625H15.7544C16.0789 101.733 17.0742 97.9274 18.6962 94.375ZM41.875 109.375V116.875H15.625V109.375H41.875ZM78.25 88L77.3706 89.3125C76.5394 90.5597 75.9893 91.9726 75.7581 93.4534C75.5271 94.9343 75.6205 96.4476 76.0319 97.8887L76.3656 99.0531C78.3668 106.069 79.3797 113.329 79.375 120.625C79.375 121.619 78.9799 122.573 78.2766 123.277C77.5733 123.98 76.6195 124.375 75.625 124.375H56.875C55.8805 124.375 54.9267 123.98 54.2234 123.277C53.5201 122.573 53.125 121.619 53.125 120.625C53.1242 113.332 54.1403 106.075 56.1438 99.0625L56.4775 97.8981C56.8891 96.4566 56.9824 94.9429 56.7513 93.4619C56.5201 91.9808 55.9699 90.5676 55.1387 89.32L54.2594 88.0075C53.7518 87.247 53.4042 86.3914 53.2373 85.4926C53.0704 84.5937 53.0879 83.6702 53.2887 82.7783C53.4895 81.8864 53.8692 81.0445 54.4053 80.3039C54.9411 79.5632 55.6219 78.9391 56.4062 78.4694L61.1444 75.625H71.3556L76.0938 78.4694C76.8779 78.9383 77.5585 79.5616 78.0947 80.3012C78.6308 81.0409 79.0113 81.8819 79.2128 82.7729C79.4144 83.6641 79.4331 84.5868 79.2676 85.4853C79.102 86.3838 78.7559 87.2393 78.25 88ZM70 68.125V71.875H62.5V68.125H70ZM68.125 64.375H64.375V60.625H68.125V64.375ZM76.7069 74.4625L73.75 72.6887V66.25C73.75 65.7528 73.5524 65.2757 73.2008 64.9242C72.8493 64.5726 72.3722 64.375 71.875 64.375V62.5H77.3894L76.7069 74.4625ZM81.25 58.75H71.875C71.875 58.2528 71.6774 57.7757 71.3258 57.4242C70.9743 57.0726 70.4972 56.875 70 56.875H62.5C62.0028 56.875 61.5257 57.0726 61.1742 57.4242C60.8226 57.7757 60.625 58.2528 60.625 58.75H53.125V51.25H81.25V58.75ZM36.25 15.625H62.5C62.9972 15.625 63.4743 15.8226 63.8258 16.1742C64.1774 16.5258 64.375 17.0027 64.375 17.5C64.375 17.9973 64.1774 18.4742 63.8258 18.8258C63.4743 19.1774 62.9972 19.375 62.5 19.375H36.25C35.7528 19.375 35.2757 19.1774 34.9242 18.8258C34.5726 18.4742 34.375 17.9973 34.375 17.5C34.375 17.0027 34.5726 16.5258 34.9242 16.1742C35.2757 15.8226 35.7528 15.625 36.25 15.625ZM21.25 38.125C21.2619 34.57 22.2787 31.0906 24.183 28.0886C26.0873 25.0865 28.8016 22.6839 32.0125 21.1581C32.5351 21.7723 33.1844 22.2662 33.9158 22.6057C34.6473 22.9452 35.4436 23.1224 36.25 23.125H62.5C63.3064 23.1222 64.1026 22.945 64.8342 22.6055C65.5656 22.266 66.2149 21.7722 66.7375 21.1581C69.9482 22.6843 72.6623 25.0869 74.5664 28.0889C76.4706 31.0909 77.4876 34.57 77.5 38.125V47.5H53.125V45.625C53.125 45.1278 52.9274 44.6507 52.5758 44.2992C52.2243 43.9476 51.7472 43.75 51.25 43.75H32.5C32.0028 43.75 31.5257 43.9476 31.1742 44.2992C30.8226 44.6507 30.625 45.1278 30.625 45.625V47.5H21.25V38.125ZM49.375 47.5V68.125C49.375 68.6222 49.1774 69.0993 48.8258 69.4508C48.4743 69.8024 47.9972 70 47.5 70H36.25C35.7528 70 35.2757 69.8024 34.9242 69.4508C34.5726 69.0993 34.375 68.6222 34.375 68.125V47.5H49.375ZM17.5 51.25H30.625V58.75H17.5V51.25ZM30.625 62.5V68.125C30.625 69.6167 31.2177 71.0476 32.2726 72.1024C33.3274 73.1573 34.7582 73.75 36.25 73.75H47.5C48.9917 73.75 50.4226 73.1573 51.4774 72.1024C52.5323 71.0476 53.125 69.6167 53.125 68.125V62.5H60.625V64.375C60.1278 64.375 59.6507 64.5726 59.2992 64.9242C58.9476 65.2757 58.75 65.7528 58.75 66.25V72.6887L54.475 75.25C53.2555 75.9809 52.1971 76.9519 51.364 78.1041C50.5309 79.2563 49.9407 80.5656 49.6287 81.9528C49.3169 83.3401 49.2899 84.7761 49.5496 86.1739C49.8092 87.5717 50.3502 88.9024 51.1394 90.085L52.0169 91.3975C52.5471 92.1931 52.8981 93.0946 53.0457 94.0392C53.1934 94.9838 53.134 95.9493 52.8719 96.8688L52.5381 98.0331C50.4391 105.38 49.3744 112.984 49.375 120.625C49.3827 121.946 49.7425 123.24 50.4175 124.375H44.5825C45.2573 123.24 45.6173 121.946 45.625 120.625V107.5C45.6278 105.464 45.1814 103.452 44.3177 101.609C43.4539 99.7649 42.1941 98.1342 40.6281 96.8331L34.375 91.6206V85C34.375 84.5027 34.1774 84.0257 33.8258 83.6742C33.4743 83.3226 32.9972 83.125 32.5 83.125V77.5C32.5 77.0027 32.3024 76.5257 31.9508 76.1742C31.5993 75.8226 31.1222 75.625 30.625 75.625H22.1106L21.3606 62.5H30.625ZM21.25 79.375H28.75V83.125H21.25V79.375ZM15.625 120.625H41.875C41.875 121.619 41.4799 122.573 40.7766 123.277C40.0733 123.98 39.1195 124.375 38.125 124.375H19.375C18.3804 124.375 17.4266 123.98 16.7234 123.277C16.0201 122.573 15.625 121.619 15.625 120.625Z" fill="#0068FF"/>
<path d="M64.7069 95.1846C63.7112 96.6246 58.75 103.986 58.75 107.5C58.75 109.489 59.5401 111.396 60.9468 112.803C62.3532 114.209 64.2608 115 66.25 115C68.2392 115 70.1468 114.209 71.5532 112.803C72.9599 111.396 73.75 109.489 73.75 107.5C73.75 103.986 68.7887 96.6246 67.7931 95.1846C67.6114 94.9482 67.3776 94.7566 67.1101 94.6247C66.8425 94.4929 66.5483 94.4245 66.25 94.4245C65.9517 94.4245 65.6575 94.4929 65.3899 94.6247C65.1224 94.7566 64.8886 94.9482 64.7069 95.1846ZM66.25 111.25C65.2555 111.25 64.3017 110.855 63.5984 110.151C62.8951 109.448 62.5 108.494 62.5 107.5C62.5 106.258 64.2494 102.859 66.25 99.664C68.2506 102.851 70 106.258 70 107.5C70 108.494 69.6049 109.448 68.9016 110.151C68.1983 110.855 67.2445 111.25 66.25 111.25Z" fill="#0068FF"/>
</svg>
