<svg width="36" height="36" viewBox="0 0 36 36" fill="none" xmlns="http://www.w3.org/2000/svg">
<path d="M15.0427 9.79262V8.27886C15.0471 8.03185 15.2465 7.83252 15.4937 7.8283H19.6885C19.8081 7.8283 19.9229 7.87577 20.0074 7.96025C20.092 8.04473 20.1395 8.15938 20.1395 8.27886V9.79262C20.1395 9.9121 20.092 10.0268 20.0074 10.1112C19.9229 10.1957 19.8081 10.2432 19.6885 10.2432H15.4937C15.2447 10.2432 15.0427 10.0414 15.0427 9.79262ZM19.6615 6.92719V6.52611C19.6615 6.28715 19.5665 6.05805 19.3973 5.8891C19.2282 5.71994 18.9987 5.625 18.7594 5.625H16.4275C16.1883 5.625 15.9589 5.71994 15.7896 5.8891C15.6204 6.05805 15.5254 6.28716 15.5254 6.52611V6.92719H19.6615ZM23.6668 23.0128L23.8833 24.9684L23.5494 29.3747H23.5496C23.5077 29.9084 23.2663 30.4066 22.8736 30.7704C22.4808 31.1345 21.9653 31.3375 21.4297 31.3393H15.0877C14.6646 31.3407 14.2508 31.2152 13.9003 30.9788C13.5495 30.7425 13.2781 30.4062 13.1212 30.0138C12.1577 27.5345 11.6386 24.9052 11.5877 22.2462C11.585 18.2694 12.9803 14.4178 15.5299 11.3633V11.1442H19.6614V11.2442C19.86 11.3434 20.0673 11.4325 20.2929 11.5236C21.7487 11.9599 22.9818 12.9366 23.739 14.2531C25.2544 17.5071 23.8922 22.2668 23.6667 23.013L23.6668 23.0128ZM19.7696 24.2024C19.0749 24.0763 18.1459 21.8686 17.6316 17.2268H17.6318C17.5961 16.8963 17.4391 16.5907 17.1906 16.3695C16.9423 16.1481 16.6205 16.027 16.2877 16.0292H16.1072C15.8423 16.024 15.5817 16.0986 15.3598 16.2432C15.1377 16.3878 14.9643 16.596 14.8622 16.8402C13.5542 19.4633 13.5723 23.6264 14.8892 27.3832H14.8894C14.9589 27.6819 15.128 27.948 15.3691 28.1381C15.6101 28.328 15.9085 28.4304 16.2154 28.4285H20.09C20.4208 28.4287 20.7403 28.3079 20.988 28.0886C21.2357 27.8696 21.3944 27.5673 21.434 27.2392C21.461 26.9769 21.4882 26.6985 21.5152 26.4184V26.4182C21.5653 25.8956 21.4119 25.3736 21.0869 24.9611C20.7617 24.5483 20.2901 24.2766 19.7698 24.2024L19.7696 24.2024ZM21.8626 17.182C21.7092 14.9662 20.8521 14.4885 19.842 14.1363C19.7987 14.1202 19.753 14.1114 19.7066 14.1102C19.6885 14.1102 19.6797 14.1102 19.6706 14.1192C19.5443 14.2274 19.3188 14.9204 19.7338 16.8495L19.815 17.255C20.5185 20.58 20.9607 21.31 21.2132 21.3281C21.2507 21.3199 21.2851 21.3012 21.3123 21.274C21.7676 19.9603 21.9546 18.5691 21.8626 17.182L21.8626 17.182ZM19.6434 25.0948C17.9113 24.7786 17.1084 20.6974 16.7385 17.3272L16.7387 17.3274C16.7148 17.0979 16.5185 16.9253 16.2877 16.9307H16.1073C15.9295 16.9285 15.767 17.0309 15.6923 17.1922C14.4654 19.6604 14.5014 23.5443 15.7555 27.1395V27.1393C15.7936 27.3633 15.9879 27.5275 16.2154 27.5277H20.09C20.3185 27.5269 20.5112 27.3575 20.541 27.1312C20.568 26.8878 20.5952 26.6087 20.6222 26.3383C20.6478 26.0455 20.561 25.754 20.3791 25.5231C20.1973 25.2922 19.9343 25.1389 19.6434 25.0947V25.0948Z" fill="black"/>
</svg>
