<svg width="32" height="32" viewBox="0 0 32 32" fill="none" xmlns="http://www.w3.org/2000/svg">
<path d="M10.6213 24.5116C9.07778 24.5116 7.82227 23.2148 7.82227 21.621C7.82227 20.0273 9.07783 18.7305 10.6213 18.7305C12.165 18.7305 13.4209 20.0273 13.4209 21.621C13.4209 23.2148 12.1652 24.5116 10.6213 24.5116ZM10.6213 20.0444C9.80218 20.0444 9.13611 20.7515 9.13611 21.6211C9.13611 22.4906 9.80218 23.1978 10.6213 23.1978C11.4406 23.1978 12.1071 22.4906 12.1071 21.6211C12.1071 20.7515 11.4406 20.0444 10.6213 20.0444Z" fill="black"/>
<path d="M13.3345 22.5798H12.765C12.4021 22.5798 12.1081 22.2858 12.1081 21.9229C12.1081 20.9483 11.4416 20.155 10.6223 20.155C9.80319 20.155 9.13712 20.9481 9.13712 21.9229C9.13712 22.2858 8.84312 22.5798 8.4802 22.5798H4.65692C4.294 22.5798 4 22.2858 4 21.9229V15.8469C4 15.6967 4.05151 15.551 4.1459 15.4343L8.26264 10.3351C8.38746 10.1806 8.57515 10.0908 8.77368 10.0908H13.1535C13.5122 10.0908 13.8045 10.3786 13.8104 10.7369L13.9911 21.9116C13.994 22.0878 13.9259 22.2575 13.8025 22.3831C13.679 22.5086 13.5105 22.5796 13.3346 22.5796L13.3345 22.5798ZM5.31398 21.266H7.88724C8.16163 19.8812 9.28357 18.8412 10.6223 18.8412C11.4158 18.8412 12.133 19.2065 12.6428 19.7919L12.507 11.4049H9.08764L5.31401 16.0793L5.31398 21.266Z" fill="black"/>
<path d="M22.3387 24.5116C20.795 24.5116 19.5391 23.2148 19.5391 21.621C19.5391 20.0273 20.7948 18.7305 22.3387 18.7305C23.8822 18.7305 25.1379 20.0273 25.1379 21.621C25.1379 23.2148 23.8822 24.5116 22.3387 24.5116ZM22.3387 20.0444C21.5194 20.0444 20.8529 20.7515 20.8529 21.6211C20.8529 22.4906 21.5194 23.1978 22.3387 23.1978C23.1578 23.1978 23.8241 22.4906 23.8241 21.6211C23.8241 20.7515 23.1578 20.0444 22.3387 20.0444Z" fill="black"/>
<path d="M26.8172 23.0054H24.972C24.584 23.0054 24.2425 22.8703 24.0346 22.635C23.886 22.4665 23.8123 22.2581 23.8244 22.0433V21.9234C23.8244 20.9488 23.1579 20.1556 22.339 20.1556C21.5197 20.1556 20.8532 20.9487 20.8532 21.9234V22.0433C20.8653 22.2585 20.792 22.4669 20.643 22.635C20.4351 22.8705 20.0935 23.0054 19.7058 23.0054H13.8601C13.2082 23.0054 12.6777 22.4749 12.6777 21.823V9.18241C12.6777 8.53042 13.2082 8 13.8601 8H26.8174C27.4694 8 27.9999 8.53046 27.9999 9.18241V21.823C27.9997 22.4751 27.4694 23.0054 26.8173 23.0054H26.8172ZM25.1306 21.6915H26.6858V9.31375H13.9913V21.6915H19.5465C19.6545 20.1 20.8656 18.8415 22.3384 18.8415C23.8112 18.8417 25.022 20.1004 25.1301 21.6915H25.1306Z" fill="black"/>
<path d="M27.3435 12.8451H21.2468C20.8838 12.8451 20.5898 12.5511 20.5898 12.1882C20.5898 11.8253 20.8838 11.5312 21.2468 11.5312H27.3435C27.7064 11.5312 28.0004 11.8253 28.0004 12.1882C28.0004 12.5511 27.7064 12.8451 27.3435 12.8451Z" fill="black"/>
<path d="M27.3427 15.0355H23.8737C23.5108 15.0355 23.2168 14.7415 23.2168 14.3786C23.2168 14.0157 23.5108 13.7217 23.8737 13.7217H27.3427C27.7057 13.7217 27.9997 14.0157 27.9997 14.3786C27.9997 14.7415 27.7057 15.0355 27.3427 15.0355Z" fill="black"/>
</svg>
