<svg width="36" height="36" viewBox="0 0 36 36" fill="none" xmlns="http://www.w3.org/2000/svg">
<path d="M18.6839 23.9617V23.6449L18.7416 20.0161L18.7414 12.4417C18.7414 10.3681 20.5558 8.66897 22.8022 8.66897C25.0486 8.66897 26.8631 10.3681 26.8631 12.4417V19.8433H26.4022L25.7399 21.5425V24.4512H26.7767C26.719 24.768 26.6903 25.1136 26.6903 25.4593C26.6903 26.4674 26.9495 27.3312 27.3527 27.9938C27.0646 28.3393 26.6903 28.5697 26.3159 28.5697V29.0593C26.8342 29.0593 27.295 28.8289 27.6695 28.3969C28.0439 28.8001 28.5046 29.0593 29.0231 29.0593V28.5697C28.6486 28.5697 28.2743 28.368 27.9863 27.9938C28.3895 27.3602 28.6486 26.4674 28.6486 25.4593C28.6486 25.1138 28.6199 24.7681 28.5622 24.4512H29.5703V21.5425L28.908 19.8433H28.4471V12.4417C28.4471 9.53297 25.9127 7.20012 22.7735 7.20012C19.6631 7.20012 17.1287 9.56182 17.1287 12.4417V12.7585L17.0711 16.3873V23.9617C17.0711 26.0353 15.2566 27.7344 13.0102 27.7344C10.764 27.7344 8.97833 26.0353 8.97833 23.9617V16.4161H9.49663L10.159 14.7169L10.1592 11.808H9.12238C9.18003 11.4912 9.20876 11.1457 9.20876 10.7999C9.20876 9.79182 8.94961 8.92803 8.54641 8.26547C8.8345 7.91994 9.20876 7.68953 9.58321 7.68953V7.19995C9.06492 7.19995 8.60406 7.43038 8.22961 7.8623C7.85515 7.45911 7.39452 7.19995 6.87601 7.19995V7.68953C7.25047 7.68953 7.62476 7.89122 7.91281 8.26547C7.50962 8.89907 7.25046 9.79187 7.25046 10.7999C7.25046 11.1455 7.27919 11.4912 7.33685 11.808H6.30005V14.7457L6.9624 16.4448H7.30794V23.9616C7.30794 26.8704 9.84239 29.2032 12.9815 29.2032C16.1496 29.2032 18.6839 26.8415 18.6839 23.9616V23.9617ZM28.1303 25.4593C28.1303 26.237 27.9576 26.957 27.6408 27.5329C27.3527 26.9857 27.1512 26.2657 27.1512 25.4593C27.1512 25.1138 27.1799 24.7681 27.2663 24.4512H28.015C28.1014 24.768 28.1304 25.1136 28.1304 25.4593H28.1303ZM7.76874 10.8001C7.76874 10.0225 7.9415 9.30248 8.25831 8.72653C8.54639 9.27378 8.74788 9.99378 8.74788 10.8001C8.74788 11.1457 8.71916 11.4914 8.63277 11.8082H7.88402C7.82637 11.4914 7.76871 11.1746 7.76871 10.8001H7.76874Z" fill="white"/>
</svg>
