<svg width="50" height="50" viewBox="0 0 50 50" fill="none" xmlns="http://www.w3.org/2000/svg">
<circle cx="25" cy="25" r="25" fill="#EC8DCC"/>
<path d="M38.9137 17.736L31.3163 25.3333L38.9125 32.9295C38.9638 32.7382 39 32.541 39 32.3333V18.3333C39 18.1257 38.9638 17.9285 38.9137 17.736ZM28.136 25.2155L37.264 16.0863C37.0715 16.0362 36.8743 16 36.6667 16H13.3333C13.1257 16 12.9285 16.0362 12.736 16.0863L21.864 25.2155C23.5942 26.9433 26.4058 26.9433 28.136 25.2155ZM25 28.8438C23.32 28.8438 21.6482 28.2115 20.345 26.9713L12.736 34.5803C12.9285 34.6305 13.1257 34.6667 13.3333 34.6667H36.6667C36.8743 34.6667 37.0715 34.6305 37.264 34.5803L29.655 26.9713C28.3518 28.2115 26.68 28.8438 25 28.8438ZM11.0863 17.736C11.0362 17.9285 11 18.1257 11 18.3333V32.3333C11 32.541 11.0362 32.7382 11.0863 32.9307L18.6837 25.3333L11.0863 17.736Z" fill="white"/>
</svg>
