<svg width="26" height="25" viewBox="0 0 26 25" fill="none" xmlns="http://www.w3.org/2000/svg">
<path d="M14.019 20.6548C21.8789 13.7017 24 11.1193 24 7.59765C24 4.43586 21.5651 2.0005 18.4033 2.0005C16.6608 2.0005 14.8984 2.825 13.7637 4.16658L13.3054 4.70801C13.1456 4.89678 12.8545 4.89678 12.6948 4.70801L12.2365 4.16658C11.1018 2.82491 9.33936 2.0005 7.59686 2.0005C4.43507 2.0005 2.00018 4.43586 2.00018 7.59765C2.00018 11.1193 4.12114 13.7016 12.0244 20.6953L13.0005 21.6681L14.019 20.6548ZM18.4033 2.36148e-05C22.6695 2.36148e-05 26 3.33098 26 7.59718C26 10.034 24.9932 12.293 22.9536 14.7768C21.3678 16.7072 19.578 18.4068 15.3875 22.1117L13.2823 24.2091C13.1262 24.3646 12.8738 24.3646 12.7177 24.2091L12.2941 23.7872L10.6557 22.1522C6.42215 18.4068 4.63215 16.7072 3.04643 14.7768C1.00679 12.2931 0 10.0339 0 7.59715C0 3.33096 3.3306 0 7.59668 0C9.56608 0 11.5267 0.77381 12.9999 2.09072C14.4731 0.77381 16.4339 2.36148e-05 18.4033 2.36148e-05Z" fill="white"/>
</svg>
