<svg width="40" height="40" viewBox="0 0 40 40" fill="none" xmlns="http://www.w3.org/2000/svg">
<path d="M21.019 28.6548C28.8789 21.7017 31 19.1193 31 15.5977C31 12.4359 28.5651 10.0005 25.4033 10.0005C23.6608 10.0005 21.8984 10.825 20.7637 12.1666L20.3054 12.708C20.1456 12.8968 19.8545 12.8968 19.6948 12.708L19.2365 12.1666C18.1018 10.8249 16.3394 10.0005 14.5969 10.0005C11.4351 10.0005 9.00018 12.4359 9.00018 15.5977C9.00018 19.1193 11.1211 21.7016 19.0244 28.6953L20.0005 29.6681L21.019 28.6548ZM25.4033 8.00002C29.6695 8.00002 33 11.331 33 15.5972C33 18.034 31.9932 20.293 29.9536 22.7768C28.3678 24.7072 26.578 26.4068 22.3875 30.1117L20.2823 32.2091C20.1262 32.3646 19.8738 32.3646 19.7177 32.2091L19.2941 31.7872L17.6557 30.1522C13.4222 26.4068 11.6321 24.7072 10.0464 22.7768C8.00679 20.2931 7 18.0339 7 15.5972C7 11.331 10.3306 8 14.5967 8C16.5661 8 18.5267 8.77381 19.9999 10.0907C21.4731 8.77381 23.4339 8.00002 25.4033 8.00002Z" fill="#DF5151"/>
<path d="M8.56888 16.3112L8.90007 12.9993C8.96295 12.3705 9.31929 11.8084 9.86115 11.4833L11.3117 10.613C11.4369 10.5379 11.5698 10.4767 11.7083 10.4306L14.0287 9.65709C14.3382 9.55393 14.6682 9.52804 14.99 9.58167L16.9862 9.91436C17.3231 9.97052 17.64 10.112 17.9068 10.3254L19.0007 11.2006C19.6099 11.6879 20.4468 11.7766 21.1446 11.4277L23 10.5L24.8198 9.77209C25.259 9.5964 25.7463 9.58208 26.195 9.73167L28.0521 10.3507C28.3466 10.4489 28.6143 10.6143 28.8339 10.8339L30.4952 12.4952C30.8216 12.8216 31.0251 13.251 31.071 13.7104L31.4188 17.1885C31.4709 17.7087 31.3171 18.2286 30.9905 18.6369L27.5 23L21.4142 29.0858C20.6332 29.8668 19.3668 29.8668 18.5858 29.0858L18 28.5L12.1552 22.6552C12.0521 22.5521 11.9605 22.4379 11.8821 22.3148L8.87163 17.584C8.63088 17.2057 8.52426 16.7574 8.56888 16.3112Z" fill="#DF5151"/>
</svg>
