<svg width="24" height="24" viewBox="0 0 24 24" fill="none" xmlns="http://www.w3.org/2000/svg">
<path d="M12.8133 17.4584C18.3152 12.5912 19.8 10.7835 19.8 8.31836C19.8 6.1051 18.0956 4.40035 15.8823 4.40035C14.6626 4.40035 13.4289 4.9775 12.6346 5.9166L12.4054 6.18739C12.2456 6.37616 11.9545 6.37616 11.7947 6.18739L11.5656 5.9166C10.7713 4.97744 9.53755 4.40035 8.3178 4.40035C6.10455 4.40035 4.40013 6.1051 4.40013 8.31836C4.40013 10.7835 5.8848 12.5911 11.4171 17.4867L12.1003 18.1677L12.8133 17.4584ZM15.8823 3.00002C18.8687 3.00002 21.2 5.33169 21.2 8.31802C21.2 10.0238 20.4952 11.6051 19.0675 13.3438C17.9575 14.695 16.7046 15.8848 13.7712 18.4782L12.3823 19.862C12.2262 20.0175 11.9738 20.0175 11.8177 19.862L11.6058 19.651L10.459 18.5065C7.4955 15.8848 6.2425 14.695 5.1325 13.3438C3.70475 11.6052 3 10.0238 3 8.31801C3 5.33167 5.33142 3 8.31767 3C9.69626 3 11.0687 3.54167 12.0999 4.4635C13.1312 3.54167 14.5037 3.00002 15.8823 3.00002Z" fill="white"/>
</svg>
