<svg width="47" height="47" viewBox="0 0 47 47" fill="none" xmlns="http://www.w3.org/2000/svg">
<path d="M23.5007 0.583496C17.4228 0.583496 11.5938 2.99792 7.29612 7.29563C2.99841 11.5933 0.583984 17.4223 0.583984 23.5002C0.583984 29.578 2.99841 35.407 7.29612 39.7047C11.5938 44.0024 17.4228 46.4168 23.5007 46.4168C29.5785 46.4168 35.4075 44.0024 39.7052 39.7047C44.0029 35.407 46.4173 29.578 46.4173 23.5002C46.4173 17.4223 44.0029 11.5933 39.7052 7.29563C35.4075 2.99792 29.5785 0.583496 23.5007 0.583496V0.583496Z" fill="#3F51B5"/>
<path d="M29.6508 23.5H25.7917V37.25H20.0625V23.5H16.625V18.9167H20.0625V16.1552C20.0648 12.1356 21.7343 9.75 26.47 9.75H30.375V14.3333H27.7545C25.9108 14.3333 25.7917 15.0208 25.7917 16.3076V18.9167H30.375L29.6508 23.5Z" fill="white"/>
</svg>
