<svg width="38" height="38" viewBox="0 0 38 38" fill="none" xmlns="http://www.w3.org/2000/svg">
<path d="M30.4001 6.35146H7.60009C7.2642 6.35146 6.94188 6.48484 6.70438 6.72234C6.46688 6.95984 6.3335 7.28214 6.3335 7.61806V12.9001C6.33434 13.9076 6.73534 14.8735 7.44804 15.5854L14.8331 22.9704C15.0701 23.2094 15.2023 23.5329 15.2003 23.8697V30.4182C15.1995 30.8558 15.4245 31.263 15.7956 31.4948C15.9972 31.6197 16.2299 31.6856 16.4669 31.6848C16.6652 31.6837 16.8605 31.636 17.0369 31.5454L22.1035 29.012L22.1037 29.0122C22.3126 28.9069 22.4882 28.7459 22.6112 28.5468C22.7342 28.3479 22.7997 28.1187 22.8003 27.8848V23.8695C22.7984 23.5328 22.9305 23.2092 23.1676 22.9702L30.5526 15.5852C31.2654 14.8734 31.6664 13.9075 31.6672 12.9V7.61791C31.6672 7.28202 31.5338 6.9597 31.2963 6.7222C31.0588 6.4847 30.7365 6.35132 30.4006 6.35132L30.4001 6.35146ZM29.1335 12.9C29.1354 13.2367 29.0033 13.5603 28.766 13.7992L21.381 21.1843L21.3812 21.1841C20.6683 21.8961 20.2675 22.862 20.2664 23.8695V27.0995L17.733 28.3661L17.7332 23.8695C17.7322 22.862 17.3314 21.8961 16.6185 21.1841L9.234 13.7996C8.99671 13.5606 8.8646 13.237 8.86651 12.9003V8.88482H29.1335L29.1335 12.9Z" fill="black"/>
</svg>
