<svg width="32" height="32" viewBox="0 0 32 32" fill="none" xmlns="http://www.w3.org/2000/svg">
<path d="M25.6001 5.34876H6.4001C6.11724 5.34876 5.84582 5.46108 5.64582 5.66108C5.44582 5.86108 5.3335 6.13248 5.3335 6.41536V10.8634C5.33421 11.7118 5.67189 12.5252 6.27206 13.1247L12.491 19.3436C12.6907 19.5449 12.8019 19.8174 12.8003 20.1009V25.6155C12.7996 25.984 12.9891 26.3269 13.3016 26.5221C13.4714 26.6272 13.6673 26.6828 13.8669 26.6821C14.0339 26.6812 14.1983 26.641 14.3469 26.5647L18.6135 24.4313L18.6137 24.4315C18.7896 24.3428 18.9375 24.2072 19.041 24.0396C19.1446 23.8721 19.1998 23.679 19.2003 23.4821V20.1008C19.1987 19.8172 19.31 19.5447 19.5096 19.3435L25.7286 13.1245C26.3288 12.5251 26.6664 11.7117 26.6671 10.8633V6.41524C26.6671 6.13238 26.5548 5.86095 26.3548 5.66095C26.1548 5.46095 25.8834 5.34863 25.6005 5.34863L25.6001 5.34876ZM24.5335 10.8633C24.5351 11.1468 24.4239 11.4193 24.224 11.6206L18.0051 17.8395L18.0052 17.8394C17.4049 18.439 17.0674 19.2524 17.0665 20.1008V22.8208L14.9331 23.8874L14.9333 20.1008C14.9324 19.2524 14.5949 18.439 13.9945 17.8394L7.77602 11.6209C7.5762 11.4196 7.46495 11.1471 7.46656 10.8635V7.48211H24.5335L24.5335 10.8633Z" fill="white"/>
</svg>
