<svg width="36" height="36" viewBox="0 0 36 36" fill="none" xmlns="http://www.w3.org/2000/svg">
<path d="M17.9869 13.1528L11.2318 15.4231L17.9622 17.6537L23.0596 15.9639C22.968 15.2829 24.3032 16.0596 23.3154 14.9428L17.9869 13.1528ZM23.3154 14.9428C23.2085 15.2608 22.917 15.6008 23.0596 15.9639L24.718 15.4144L23.3154 14.9428ZM25.7462 15.7604V15.7606C25.7388 15.7636 25.7315 15.7666 25.7239 15.7692L22.2846 16.9089C22.2689 17.1108 22.107 17.0893 22.107 17.2984L22.2421 17.5873C22.2408 17.7669 22.8003 17.6228 22.6209 17.6228C22.4415 17.6228 22.2957 17.478 22.2945 17.2984C22.2945 17.167 22.2912 17.0372 22.2846 16.9089L18.9992 17.9975L25.7235 20.2256V20.2258C25.7265 20.227 25.7293 20.228 25.7321 20.2292L32.3865 17.9929L25.7462 15.7604ZM10.2019 15.769L3.58716 17.9921L10.2163 20.22L16.9246 17.9971L10.2019 15.769ZM17.9625 18.3409L11.2469 20.5663L17.9872 22.8316L24.7032 20.5746L17.9625 18.3409Z" fill="black"/>
</svg>
