<svg width="42" height="44" viewBox="0 0 42 44" fill="none" xmlns="http://www.w3.org/2000/svg">
<path d="M41.9999 22.5133C41.9999 21.0667 41.8599 19.5733 41.6266 18.1733H21.4199V26.4333H32.9933C32.5266 29.0933 30.9866 31.4267 28.6999 32.92L35.6066 38.2867C39.6666 34.5067 41.9999 29 41.9999 22.5133Z" fill="#4280EF"/>
<path d="M21.4204 43.42C27.2071 43.42 32.0604 41.5067 35.6071 38.24L28.7004 32.92C26.7871 34.2267 24.3138 34.9733 21.4204 34.9733C15.8204 34.9733 11.1071 31.1933 9.38044 26.1533L2.28711 31.6133C5.92711 38.8467 13.3004 43.42 21.4204 43.42Z" fill="#34A353"/>
<path d="M9.38005 26.1067C8.49338 23.4467 8.49338 20.5534 9.38005 17.8934L2.28672 12.3867C-0.746615 18.4534 -0.746615 25.5934 2.28672 31.6134L9.38005 26.1067Z" fill="#F6B704"/>
<path d="M21.4204 9.07325C24.4538 9.02658 27.4404 10.1932 29.6338 12.2932L35.7471 6.13325C31.8738 2.49325 26.7404 0.533249 21.4204 0.579916C13.3004 0.579916 5.92711 5.15325 2.28711 12.3866L9.38044 17.8932C11.1071 12.8066 15.8204 9.07325 21.4204 9.07325Z" fill="#E54335"/>
</svg>
