<svg width="36" height="36" viewBox="0 0 36 36" fill="none" xmlns="http://www.w3.org/2000/svg">
<path d="M8.98723 10.3373H14.3872C14.6357 10.3373 14.8372 10.1358 14.8372 9.88726C14.8372 9.63875 14.6357 9.43726 14.3872 9.43726H8.98723C8.73873 9.43726 8.53723 9.63875 8.53723 9.88726C8.53723 10.1358 8.73873 10.3373 8.98723 10.3373Z" fill="black"/>
<path d="M16.6373 21.5872V22.0372H30.1373V21.5872C30.1373 21.4679 30.0899 21.3534 30.0055 21.269C29.9212 21.1846 29.8067 21.1372 29.6873 21.1372H17.0873C16.8388 21.1372 16.6373 21.3387 16.6373 21.5872Z" fill="black"/>
<path d="M13.9373 5.38726C13.9373 5.26793 13.8898 5.15342 13.8055 5.06904C13.7211 4.98467 13.6066 4.93726 13.4873 4.93726H9.88726C9.63875 4.93726 9.43726 5.13875 9.43726 5.38726V8.53726H13.9373V5.38726ZM11.2373 7.63726H10.3373V5.83726H11.2373V7.63726ZM13.0373 7.63726H12.1373V5.83726H13.0373V7.63726Z" fill="black"/>
<path d="M22.9373 13.9373H26.5373V18.4373H22.9373V13.9373Z" fill="black"/>
<path d="M25.6373 5.38726C25.6373 5.26793 25.5899 5.15342 25.5055 5.06904C25.4211 4.98467 25.3066 4.93726 25.1873 4.93726H24.2873C24.0388 4.93726 23.8373 5.13875 23.8373 5.38726V7.63726H25.6373V5.38726ZM25.1873 6.73726H24.2873V5.83726H25.1873V6.73726Z" fill="black"/>
<path d="M28.3373 13.0374C28.3365 12.557 28.1732 12.0912 27.8739 11.7157L27.1989 10.8715C26.7716 10.3364 26.5383 9.67223 26.5373 8.98735C26.5373 8.86802 26.4899 8.75351 26.4056 8.66914C26.3212 8.58477 26.2067 8.53735 26.0873 8.53735H23.3873C23.1388 8.53735 22.9373 8.73885 22.9373 8.98735C22.9365 9.67197 22.7037 10.336 22.2768 10.8711L21.6018 11.7157C21.3021 12.0912 21.1383 12.557 21.1373 13.0374V20.2374H28.3373L28.3373 13.0374ZM27.4373 18.8874C27.4373 19.0067 27.3899 19.1212 27.3055 19.2056C27.2212 19.2899 27.1067 19.3374 26.9873 19.3374H22.4873C22.2388 19.3374 22.0373 19.1359 22.0373 18.8874V13.4874C22.0373 13.2389 22.2388 13.0374 22.4873 13.0374H26.9873C27.1067 13.0374 27.2212 13.0848 27.3055 13.1691C27.3899 13.2535 27.4373 13.368 27.4373 13.4874V18.8874Z" fill="black"/>
<path d="M15.7373 21.5872C15.7385 21.309 15.8255 21.038 15.9866 20.8112C16.1477 20.5844 16.375 20.4128 16.6373 20.32V18.8873C16.6373 18.7679 16.5899 18.6534 16.5055 18.569C16.4211 18.4847 16.3066 18.4373 16.1873 18.4373H14.3873C14.1388 18.4373 13.9373 18.6388 13.9373 18.8873V21.5873C13.9365 22.1837 13.6992 22.7557 13.2776 23.1775C12.8557 23.5992 12.2838 23.8364 11.6873 23.8373H7.6373C7.39865 23.8373 7.16962 23.9321 7.00088 24.1008C6.83213 24.2696 6.7373 24.4986 6.7373 24.7373V28.3373C6.7373 28.5759 6.83213 28.8049 7.00088 28.9737C7.16962 29.1424 7.39865 29.2373 7.6373 29.2373H14.8373V27.4373H7.6373V26.5373H14.8373V25.6373H7.6373V24.7373H14.8373V23.3873C14.8385 23.109 14.9255 22.838 15.0866 22.6112C15.2477 22.3844 15.4749 22.2128 15.7373 22.12L15.7373 21.5872Z" fill="black"/>
<path d="M30.5873 22.9373H16.1873C15.9388 22.9373 15.7373 23.1388 15.7373 23.3873V30.5873C15.7373 30.7066 15.7847 30.8211 15.8691 30.9055C15.9535 30.9898 16.068 31.0373 16.1873 31.0373H30.5873C30.7066 31.0373 30.8211 30.9898 30.9055 30.9055C30.9899 30.8211 31.0373 30.7066 31.0373 30.5873V23.3873C31.0373 23.2679 30.9899 23.1534 30.9055 23.069C30.8211 22.9847 30.7066 22.9373 30.5873 22.9373ZM30.1373 29.6873C30.1373 29.8066 30.0899 29.9211 30.0055 30.0055C29.9211 30.0898 29.8066 30.1373 29.6873 30.1373H17.0873C16.8388 30.1373 16.6373 29.9358 16.6373 29.6873V24.2873C16.6373 24.0388 16.8388 23.8373 17.0873 23.8373H29.6873C29.8066 23.8373 29.9211 23.8847 30.0055 23.969C30.0899 24.0534 30.1373 24.1679 30.1373 24.2873V29.6873Z" fill="black"/>
<path d="M14.8373 30.1372H7.63728C7.15996 30.1372 6.7021 29.9476 6.36442 29.6101C6.02692 29.2724 5.83728 28.8145 5.83728 28.3372V24.7372C5.83728 24.2599 6.02692 23.8021 6.36442 23.4644C6.70212 23.1269 7.15997 22.9372 7.63728 22.9372H11.6873C12.0453 22.9372 12.3888 22.795 12.6419 22.5419C12.895 22.2887 13.0373 21.9452 13.0373 21.5873V18.8873C13.0373 18.5293 13.1795 18.1857 13.4326 17.9326C13.6857 17.6796 14.0293 17.5373 14.3872 17.5373H16.1872C16.5452 17.5373 16.8888 17.6795 17.1418 17.9326C17.3949 18.1858 17.5372 18.5293 17.5372 18.8873V20.2373H18.4372V18.8873C18.4402 17.8534 18.0294 16.8614 17.2965 16.1324L15.3416 14.1786C14.5499 13.3907 14.0607 12.3494 13.9593 11.2373H9.41426C9.31281 12.3494 8.82345 13.3907 8.03171 14.1786L6.07784 16.1324C5.34498 16.8615 4.93417 17.8535 4.93715 18.8873V28.7873C4.93795 29.3837 5.17521 29.9557 5.59688 30.3775C6.01875 30.7992 6.59068 31.0364 7.18715 31.0373H14.92C14.8667 30.8932 14.8386 30.7409 14.8372 30.5873L14.8373 30.1372ZM6.71414 16.9237L9.73958 13.8989L9.73938 13.8987C10.0027 13.6353 10.3601 13.4872 10.7326 13.4872C11.105 13.4872 11.4622 13.6353 11.7258 13.8987C11.9891 14.162 12.137 14.5194 12.137 14.8918V19.7874C12.1362 20.3839 11.8989 20.9558 11.4773 21.3777C11.0554 21.7993 10.4834 22.0366 9.88698 22.0374H8.83208C8.03776 22.0374 7.27575 21.7218 6.71404 21.1599C6.15234 20.5982 5.83672 19.8362 5.83672 19.0417C5.83672 18.2474 6.15232 17.4853 6.71404 16.9236L6.71414 16.9237Z" fill="black"/>
<path d="M17.5372 24.7373H29.2372V29.2373H17.5372V24.7373Z" fill="black"/>
</svg>
