<svg width="40" height="40" viewBox="0 0 40 40" fill="none" xmlns="http://www.w3.org/2000/svg">
<path d="M22.9321 22.259C22.5783 22.259 22.2393 22.3994 21.9893 22.6494C21.7393 22.8994 21.5986 23.2387 21.5986 23.5923V24.259C21.5986 24.7354 21.8529 25.1755 22.2654 25.4137C22.6779 25.6519 23.1861 25.6519 23.5986 25.4137C24.0111 25.1755 24.2654 24.7354 24.2654 24.259V23.5923C24.2654 23.2387 24.125 22.8994 23.8748 22.6494C23.6248 22.3994 23.2857 22.259 22.9321 22.259H22.9321Z" fill="#538DFC"/>
<path d="M29.5984 12.7853C29.5315 12.4726 29.2516 12.2516 28.9319 12.2587H20.9319V11.4987C21.777 11.2804 22.4618 10.6623 22.7654 9.844C23.069 9.02549 22.9527 8.11029 22.4543 7.39377C21.9558 6.67726 21.1382 6.25 20.2652 6.25C19.3921 6.25 18.5745 6.67723 18.0761 7.39377C17.5776 8.11031 17.4613 9.02549 17.7649 9.844C18.0685 10.6623 18.7533 11.2804 19.5984 11.4987V12.2587H11.5984C11.2788 12.2516 10.9989 12.4726 10.9319 12.7853L6.26515 34.1184C6.22229 34.318 6.27296 34.526 6.4031 34.6834C6.533 34.8408 6.72787 34.9298 6.93189 34.9251H33.5982C33.8022 34.9298 33.9971 34.8408 34.127 34.6834C34.2571 34.526 34.3078 34.318 34.2649 34.1184L29.5984 12.7853ZM18.9322 8.92525C18.9322 8.57167 19.0726 8.23262 19.3226 7.98262C19.5726 7.73239 19.9118 7.59199 20.2654 7.59199C20.619 7.59199 20.9583 7.73239 21.2083 7.98262C21.4583 8.23262 21.5987 8.5717 21.5987 8.92525C21.5987 9.27904 21.4583 9.6181 21.2083 9.8681C20.9583 10.1181 20.619 10.2587 20.2654 10.2587C19.9118 10.2587 19.5726 10.1181 19.3226 9.8681C19.0726 9.6181 18.9322 9.27902 18.9322 8.92525ZM19.4654 25.8584V25.8586C19.6864 26.153 19.6266 26.5709 19.3322 26.7919C19.2168 26.8785 19.0763 26.9251 18.9322 26.9251C18.7223 26.9251 18.5246 26.8265 18.3987 26.6586L16.5788 24.2586L16.2654 24.572V26.2586C16.2654 26.6267 15.967 26.9251 15.5986 26.9251C15.2306 26.9251 14.9321 26.6267 14.9321 26.2586V18.2586C14.9321 17.8903 15.2306 17.5919 15.5986 17.5919C15.967 17.5919 16.2654 17.8903 16.2654 18.2586V22.6453L18.4587 20.4519C18.7201 20.1906 19.144 20.1906 19.4053 20.4519C19.6667 20.7133 19.6667 21.1372 19.4053 21.3986L17.5254 23.2785L19.4654 25.8584ZM25.5986 27.5919C25.5986 28.5446 25.0903 29.4249 24.2653 29.9012C23.4403 30.3776 22.4238 30.3776 21.5986 29.9012C20.7735 29.4249 20.2653 28.5446 20.2653 27.5919C20.2653 27.2238 20.5637 26.9251 20.932 26.9251C21.3001 26.9251 21.5986 27.2238 21.5986 27.5919C21.5986 28.0682 21.8528 28.5084 22.2653 28.7466C22.6778 28.9847 23.186 28.9847 23.5986 28.7466C24.0111 28.5084 24.2653 28.0682 24.2653 27.5919V26.5653C23.4407 27.0414 22.4247 27.0416 21.5999 26.566C20.7748 26.0903 20.2662 25.2108 20.2653 24.2586V23.5919C20.2653 22.9571 20.4921 22.343 20.9044 21.8601C21.3169 21.3773 21.8879 21.0577 22.5149 20.9584C23.1422 20.859 23.7841 20.9867 24.3254 21.3184C24.4551 21.0336 24.7658 20.8773 25.072 20.9432C25.3781 21.0088 25.5973 21.2787 25.5986 21.5919L25.5986 27.5919Z" fill="#538DFC"/>
</svg>
