<svg width="30" height="30" viewBox="0 0 30 30" fill="none" xmlns="http://www.w3.org/2000/svg">
<path d="M20.4 1.80005H9.60005C5.29805 1.80005 1.80005 5.29805 1.80005 9.60005V20.4C1.80005 24.702 5.29805 28.2 9.60005 28.2H20.4C24.702 28.2 28.2 24.702 28.2 20.4V9.60005C28.2 5.29805 24.702 1.80005 20.4 1.80005ZM15 21.6C11.358 21.6 8.40005 18.642 8.40005 15C8.40005 11.358 11.358 8.40005 15 8.40005C18.642 8.40005 21.6 11.358 21.6 15C21.6 18.642 18.642 21.6 15 21.6ZM22.2 9.00005C21.54 9.00005 21 8.46005 21 7.80005C21 7.14005 21.54 6.60005 22.2 6.60005C22.86 6.60005 23.4 7.14005 23.4 7.80005C23.4 8.46005 22.86 9.00005 22.2 9.00005Z" fill="white"/>
<path d="M20.4001 15C20.4001 17.976 17.9761 20.4 15.0001 20.4C12.0241 20.4 9.6001 17.976 9.6001 15C9.6001 12.024 12.0241 9.59998 15.0001 9.59998C17.9761 9.59998 20.4001 12.024 20.4001 15Z" fill="white"/>
</svg>
