<svg width="27" height="27" viewBox="0 0 27 27" fill="none" xmlns="http://www.w3.org/2000/svg">
<path d="M13.3613 0.333328C7.93392 0.333328 6.34662 0.338929 6.03808 0.364531C4.92429 0.457139 4.23122 0.632554 3.47616 1.00859C2.89427 1.29761 2.43535 1.63264 1.98244 2.10228C1.15759 2.95875 0.657688 4.01244 0.476722 5.26495C0.388739 5.873 0.363143 5.99701 0.357944 9.10287C0.355945 10.1382 0.357944 11.5007 0.357944 13.3282C0.357944 18.7527 0.363943 20.3388 0.389938 20.6468C0.479921 21.7309 0.649889 22.413 1.00982 23.1591C1.69769 24.5872 3.01145 25.6593 4.55915 26.0593C5.09505 26.1973 5.68694 26.2733 6.4468 26.3093C6.76874 26.3233 10.0501 26.3333 13.3335 26.3333C16.6169 26.3333 19.9003 26.3293 20.2142 26.3133C21.094 26.2719 21.6049 26.2033 22.1698 26.0573C22.9373 25.8605 23.6525 25.4984 24.2655 24.9964C24.8786 24.4945 25.3747 23.8647 25.7192 23.1511C26.0721 22.423 26.2511 21.7149 26.3321 20.6875C26.3497 20.4634 26.3571 16.8917 26.3571 13.3248C26.3571 9.75733 26.3491 6.19222 26.3315 5.96821C26.2495 4.92412 26.0705 4.22206 25.7062 3.47999C25.4072 2.87254 25.0753 2.4189 24.5934 1.95507C23.7335 1.1334 22.6817 0.633354 21.4282 0.452538C20.8209 0.364731 20.6999 0.338729 17.5925 0.333328H13.3613Z" fill="url(#paint0_radial_802_40794)"/>
<path d="M13.3613 0.333328C7.93392 0.333328 6.34662 0.338929 6.03808 0.364531C4.92429 0.457139 4.23122 0.632554 3.47616 1.00859C2.89427 1.29761 2.43535 1.63264 1.98244 2.10228C1.15759 2.95875 0.657688 4.01244 0.476722 5.26495C0.388739 5.873 0.363143 5.99701 0.357944 9.10287C0.355945 10.1382 0.357944 11.5007 0.357944 13.3282C0.357944 18.7527 0.363943 20.3388 0.389938 20.6468C0.479921 21.7309 0.649889 22.413 1.00982 23.1591C1.69769 24.5872 3.01145 25.6593 4.55915 26.0593C5.09505 26.1973 5.68694 26.2733 6.4468 26.3093C6.76874 26.3233 10.0501 26.3333 13.3335 26.3333C16.6169 26.3333 19.9003 26.3293 20.2142 26.3133C21.094 26.2719 21.6049 26.2033 22.1698 26.0573C22.9373 25.8605 23.6525 25.4984 24.2655 24.9964C24.8786 24.4945 25.3747 23.8647 25.7192 23.1511C26.0721 22.423 26.2511 21.7149 26.3321 20.6875C26.3497 20.4634 26.3571 16.8917 26.3571 13.3248C26.3571 9.75733 26.3491 6.19222 26.3315 5.96821C26.2495 4.92412 26.0705 4.22206 25.7062 3.47999C25.4072 2.87254 25.0753 2.4189 24.5934 1.95507C23.7335 1.1334 22.6817 0.633354 21.4282 0.452538C20.8209 0.364731 20.6999 0.338729 17.5925 0.333328H13.3613Z" fill="url(#paint1_radial_802_40794)"/>
<path d="M13.3553 3.73361C10.7486 3.73361 10.4214 3.74501 9.39761 3.79162C8.3758 3.83842 7.67833 4.00023 7.06805 4.23765C6.43677 4.48288 5.90127 4.8109 5.36777 5.34475C4.83387 5.87839 4.50593 6.41404 4.25997 7.04529C4.02202 7.65594 3.86005 8.3538 3.81406 9.37549C3.76847 10.3996 3.75647 10.727 3.75647 13.3344C3.75647 15.9418 3.76807 16.2681 3.81446 17.2922C3.86145 18.3142 4.02322 19.0119 4.26037 19.6224C4.50573 20.2538 4.83367 20.7895 5.36737 21.3231C5.90067 21.8571 6.43617 22.186 7.06705 22.4312C7.67773 22.6686 8.3754 22.8304 9.39701 22.8772C10.4208 22.9238 10.7478 22.9352 13.3543 22.9352C15.9612 22.9352 16.2873 22.9238 17.3111 22.8772C18.3329 22.8304 19.0312 22.6686 19.6419 22.4312C20.273 22.186 20.8077 21.8571 21.341 21.3231C21.8749 20.7895 22.2028 20.2538 22.4488 19.6226C22.6847 19.0119 22.8467 18.314 22.8947 17.2924C22.9407 16.2683 22.9527 15.9418 22.9527 13.3344C22.9527 10.727 22.9407 10.3998 22.8947 9.37569C22.8467 8.3536 22.6847 7.65594 22.4488 7.04549C22.2028 6.41404 21.8749 5.87839 21.341 5.34475C20.8071 4.8107 20.2732 4.48268 19.6413 4.23765C19.0294 4.00023 18.3315 3.83842 17.3097 3.79162C16.2859 3.74501 15.96 3.73361 13.3525 3.73361H13.3553ZM12.4942 5.46376C12.7498 5.46336 13.0349 5.46376 13.3553 5.46376C15.918 5.46376 16.2217 5.47296 17.2337 5.51896C18.1696 5.56177 18.6775 5.71818 19.0158 5.84959C19.4637 6.02361 19.7831 6.23162 20.1188 6.56765C20.4547 6.90368 20.6627 7.22371 20.8371 7.67174C20.9684 8.00977 21.125 8.51782 21.1676 9.4539C21.2136 10.466 21.2236 10.77 21.2236 13.3322C21.2236 15.8944 21.2136 16.1985 21.1676 17.2106C21.1248 18.1466 20.9684 18.6547 20.8371 18.9927C20.6631 19.4407 20.4547 19.7598 20.1188 20.0956C19.7829 20.4316 19.4639 20.6396 19.0158 20.8137C18.6779 20.9457 18.1696 21.1017 17.2337 21.1445C16.2219 21.1905 15.918 21.2005 13.3553 21.2005C10.7923 21.2005 10.4886 21.1905 9.47679 21.1445C8.54097 21.1013 8.03307 20.9449 7.69453 20.8135C7.24661 20.6394 6.92667 20.4314 6.59074 20.0954C6.2548 19.7594 6.04684 19.4401 5.87247 18.9919C5.7411 18.6539 5.58453 18.1458 5.54193 17.2098C5.49594 16.1977 5.48674 15.8936 5.48674 13.3298C5.48674 10.766 5.49594 10.4636 5.54193 9.4515C5.58473 8.51542 5.7411 8.00737 5.87247 7.66894C6.04644 7.22091 6.2548 6.90088 6.59074 6.56485C6.92667 6.22882 7.24661 6.02081 7.69453 5.84639C8.03287 5.71438 8.54097 5.55837 9.47679 5.51536C10.3622 5.47536 10.7054 5.46336 12.4942 5.46136V5.46376ZM18.4787 7.05789C18.2509 7.05789 18.0282 7.12547 17.8388 7.25208C17.6493 7.3787 17.5017 7.55865 17.4146 7.76919C17.3274 7.97974 17.3046 8.2114 17.3491 8.4349C17.3936 8.6584 17.5033 8.86368 17.6644 9.02479C17.8255 9.1859 18.0308 9.29559 18.2542 9.34C18.4777 9.38441 18.7093 9.36154 18.9197 9.27428C19.1302 9.18701 19.3101 9.03928 19.4366 8.84977C19.5631 8.66026 19.6306 8.43747 19.6305 8.20959C19.6305 7.57354 19.1146 7.05749 18.4787 7.05749V7.05789ZM13.3553 8.40401C10.6332 8.40401 8.42619 10.6116 8.42619 13.3344C8.42619 16.0573 10.6332 18.2638 13.3553 18.2638C16.0774 18.2638 18.2837 16.0573 18.2837 13.3344C18.2837 10.6116 16.0772 8.40401 13.3551 8.40401H13.3553ZM13.3553 10.1342C15.1221 10.1342 16.5547 11.5669 16.5547 13.3344C16.5547 15.1018 15.1221 16.5347 13.3553 16.5347C11.5882 16.5347 10.1559 15.1018 10.1559 13.3344C10.1559 11.5669 11.5882 10.1342 13.3553 10.1342V10.1342Z" fill="white"/>
<defs>
<radialGradient id="paint0_radial_802_40794" cx="0" cy="0" r="1" gradientUnits="userSpaceOnUse" gradientTransform="translate(7.26334 28.3359) rotate(-90) scale(25.7679 23.9662)">
<stop stop-color="#FFDD55"/>
<stop offset="0.1" stop-color="#FFDD55"/>
<stop offset="0.5" stop-color="#FF543E"/>
<stop offset="1" stop-color="#C837AB"/>
</radialGradient>
<radialGradient id="paint1_radial_802_40794" cx="0" cy="0" r="1" gradientUnits="userSpaceOnUse" gradientTransform="translate(-3.99808 2.20632) rotate(78.6806) scale(11.5184 47.4792)">
<stop stop-color="#3771C8"/>
<stop offset="0.128" stop-color="#3771C8"/>
<stop offset="1" stop-color="#6600FF" stop-opacity="0"/>
</radialGradient>
</defs>
</svg>
