<svg width="36" height="36" viewBox="0 0 36 36" fill="none" xmlns="http://www.w3.org/2000/svg">
<path d="M26.0352 19.8H9.96479C9.92622 20.0986 9.90452 20.3991 9.8999 20.7V23.4H26.0999V20.7C26.0953 20.3991 26.0736 20.0986 26.035 19.8H26.0352Z" fill="black"/>
<path d="M9.90002 27.9002C9.90002 28.6164 10.1845 29.303 10.6907 29.8095C11.1972 30.3157 11.8838 30.6002 12.6 30.6002H23.4C24.1162 30.6002 24.8028 30.3157 25.3093 29.8095C25.8156 29.303 26.1 28.6164 26.1 27.9002V25.2002H9.90002V27.9002Z" fill="black"/>
<path d="M21.6 13.4549V11.6999C21.6 10.9837 21.3156 10.2971 20.8093 9.79061C20.3028 9.28436 19.6162 8.9999 18.9 8.9999V7.1999H21.2274L21.8636 7.83612H21.8638C22.0924 8.0569 22.4204 8.14088 22.727 8.0569C23.0334 7.97273 23.2728 7.73326 23.357 7.4269C23.441 7.12034 23.357 6.79227 23.1362 6.56367L22.2362 5.66367C22.0675 5.49472 21.8387 5.3999 21.6 5.3999H16.2C15.8784 5.3999 15.5813 5.57146 15.4206 5.8499C15.2598 6.12834 15.2598 6.47147 15.4206 6.7499C15.5813 7.02834 15.8784 7.1999 16.2 7.1999H17.1V8.9999C16.3838 8.9999 15.6972 9.28436 15.1907 9.79062C14.6845 10.2971 14.4 10.9837 14.4 11.6999V13.4549C12.5257 14.3957 11.0869 16.0239 10.3842 17.9999H25.6158C24.913 16.0239 23.4742 14.3957 21.5999 13.4549L21.6 13.4549Z" fill="black"/>
</svg>
