<svg width="21" height="21" viewBox="0 0 21 21" fill="none" xmlns="http://www.w3.org/2000/svg">
<path d="M10.4001 0C7.64177 0 4.99653 1.09571 3.04616 3.04616C1.09571 4.99646 0 7.64185 0 10.4001C0 13.1583 1.09571 15.8036 3.04616 17.754C4.99646 19.7044 7.64185 20.8002 10.4001 20.8002C13.1583 20.8002 15.8036 19.7044 17.754 17.754C19.7044 15.8037 20.8002 13.1583 20.8002 10.4001C20.8002 7.64185 19.7044 4.99653 17.754 3.04616C15.8037 1.09571 13.1583 0 10.4001 0ZM15.9927 6.60214L8.7227 14.6774C8.6548 14.7521 8.55861 14.7948 8.45763 14.7949C8.36883 14.795 8.28294 14.7628 8.21605 14.7042L4.82762 11.6547C4.74695 11.5941 4.69544 11.5024 4.68587 11.4018C4.67629 11.3014 4.70937 11.2016 4.77713 11.1267C4.84474 11.0519 4.94079 11.0091 5.04177 11.0086C5.14276 11.0082 5.23909 11.0504 5.30743 11.1246L8.43077 13.9326L15.4593 6.1226C15.5217 6.04759 15.6119 6.00131 15.7093 5.9942C15.8067 5.98724 15.9026 6.02017 15.9751 6.08546C16.0476 6.1506 16.0906 6.24259 16.0939 6.34009C16.0971 6.43759 16.0607 6.53234 15.9927 6.60227L15.9927 6.60214Z" fill="#0068FF" fill-opacity="0.6"/>
</svg>
