<svg width="36" height="36" viewBox="0 0 36 36" fill="none" xmlns="http://www.w3.org/2000/svg">
<path d="M26.4301 8.40162V18.1998H25.5857V8.40162H24.0252V13.3904H23.181V8.40162H21.6205V27.9985H23.181V25.4144H24.0252V27.9983L25.5857 27.9985V24.212H26.4299V27.9983L27.9906 27.9985V8.40161L26.4301 8.40162ZM24.0252 24.2118H23.181V14.5926H24.0252V24.2118ZM26.4301 23.0094H25.5857V21.8071H26.4299L26.4301 23.0094ZM26.4301 20.6045L25.5857 20.6047V19.4022H26.4299L26.4301 20.6045Z" fill="white"/>
<path d="M19.2152 12.7933H18.3795V5.3999H14.4056V24.988H18.3795V16.4005H19.2152V24.988H20.7842L20.7844 5.3999H19.2152L19.2152 12.7933ZM16.8103 23.6061H15.9748V6.78127H16.8105L16.8103 23.6061ZM19.2152 15.1981H18.3795V13.9957H19.2152V15.1981Z" fill="white"/>
<path d="M14.4056 25.8325H20.7843V27.9985H14.4056V25.8325Z" fill="white"/>
<path d="M21.6205 28.8425H27.9904V31.0001H21.6205V28.8425Z" fill="white"/>
<path d="M7.19995 28.8425H13.5699V31.0001H7.19995V28.8425Z" fill="white"/>
<path d="M12.0095 13.3904H11.1654V8.40161H7.19995V27.9985H8.7605V25.4144H9.60485V27.9983L11.1654 27.9985V23.6067L12.0096 23.6065V27.9983H13.5701V8.40192H12.0096L12.0095 13.3904ZM9.6048 24.212H8.76045V22.4042H9.6048V24.212ZM9.6048 21.2016L8.76045 21.2018V19.9995H9.6048V21.2016ZM9.6048 18.7969L8.76045 18.7971V9.78323H9.6048V18.7969ZM12.0097 22.4042H11.1654V14.5927H12.0095L12.0097 22.4042Z" fill="white"/>
</svg>
