<svg width="40" height="40" viewBox="0 0 40 40" fill="none" xmlns="http://www.w3.org/2000/svg">
<path d="M8.3335 13.1667C8.3335 12.769 8.49153 12.3872 8.77278 12.106C9.05403 11.8248 9.43575 11.6667 9.83347 11.6667H28.8335C29.3694 11.6667 29.8645 11.9527 30.1326 12.4167C30.4004 12.8808 30.4004 13.4527 30.1326 13.9167C29.8645 14.3808 29.3694 14.6667 28.8335 14.6667H9.83347C9.4357 14.6667 9.05398 14.5087 8.77278 14.2275C8.49158 13.9462 8.3335 13.5645 8.3335 13.1668V13.1667ZM28.8335 18.6667H9.8335C9.29756 18.6667 8.80247 18.9527 8.53441 19.4167C8.26655 19.8808 8.26655 20.4527 8.53441 20.9167C8.80249 21.3808 9.29755 21.6667 9.8335 21.6667H28.8335C29.3694 21.6667 29.8645 21.3808 30.1326 20.9167C30.4004 20.4527 30.4004 19.8808 30.1326 19.4167C29.8645 18.9527 29.3694 18.6667 28.8335 18.6667ZM24.3335 25.6667H9.8335C9.29756 25.6667 8.80247 25.9527 8.53441 26.4167C8.26655 26.8808 8.26655 27.4527 8.53441 27.9167C8.80249 28.3808 9.29755 28.6667 9.8335 28.6667H24.3335C24.8694 28.6667 25.3645 28.3808 25.6326 27.9167C25.9004 27.4527 25.9004 26.8808 25.6326 26.4167C25.3645 25.9527 24.8694 25.6667 24.3335 25.6667Z" fill="white"/>
</svg>
