<svg width="20" height="21" viewBox="0 0 20 21" fill="none" xmlns="http://www.w3.org/2000/svg">
<path d="M18.9668 17.5292C18.4441 19.1303 16.642 20.8878 15.523 20.8878C15.4418 20.8901 15.375 20.8798 15.3073 20.8635C11.2693 19.7325 8.12743 17.6894 5.1176 14.2386C2.39668 11.119 0.729941 7.67312 0.0227411 3.70375C-0.247618 2.09195 1.95006 0.413371 3.56345 0.06768C3.77327 0.0226797 3.97149 0 4.15257 0C4.73095 0 5.09831 0.23643 5.21488 0.683932L6.75147 4.86587C6.99147 5.36265 6.66451 5.75515 6.11092 6.35429C5.37593 7.14962 4.46073 8.13947 5.8236 9.70144L9.62127 14.0555C10.9779 15.6109 12.0759 14.8484 12.9586 14.2352C13.6234 13.7731 14.0541 13.5054 14.5168 13.8164L18.5543 15.9736C18.9216 16.1256 19.2957 16.5204 18.9666 17.5291L18.9668 17.5292Z" fill="white"/>
</svg>
