<svg width="32" height="32" viewBox="0 0 32 32" fill="none" xmlns="http://www.w3.org/2000/svg">
<path d="M26.1669 20.1928C25.1196 19.2329 24.1597 18.1856 23.1996 17.2255C22.1523 16.1781 20.6687 16.1781 19.5342 17.2255L19.3595 17.3127C18.8359 17.8364 18.3122 18.2726 17.7886 18.8837C17.7013 18.7964 17.614 18.7964 17.5267 18.7964C17.3521 18.7092 17.0031 18.6218 16.8286 18.4474C15.2577 17.4875 13.8613 16.1783 12.3775 14.4329C11.6794 13.6474 11.2429 12.8619 10.8939 12.1638C11.3304 11.7274 11.7666 11.2911 12.2031 10.8546L12.5521 10.5056C13.6867 9.37104 13.6867 7.88745 12.5521 6.75294C12.2031 6.40389 11.854 6.05484 11.5048 5.7056L11.2431 5.26914C11.0685 5.09453 10.9813 5.00731 10.8066 4.83268C10.4576 4.48363 10.1085 4.13458 9.75931 3.78551C8.71196 2.73816 7.22837 2.73816 6.09386 3.78551C5.83219 4.04734 5.57036 4.30918 5.30854 4.57099C4.95933 4.92004 4.61027 5.26909 4.2612 5.61817C3.5631 6.31644 3.12664 7.18914 3.03943 8.1491C2.86482 9.72007 3.30126 11.1164 3.73753 12.1636C4.61023 14.5199 6.0066 16.7018 7.83943 19.0581C10.1957 21.8508 12.9883 24.0325 16.2176 25.6036C18.0502 26.4763 19.534 26.9128 21.0176 27H21.3666C22.6758 27 23.7229 26.5635 24.5085 25.6036L25.5558 24.5563C25.7304 24.3817 25.9048 24.2072 26.1667 24.0326C27.3012 22.811 27.3012 21.3274 26.1667 20.1929L26.1669 20.1928ZM25.0324 22.8982C24.8578 23.0728 24.6833 23.2472 24.4215 23.4219C24.0725 23.7709 23.636 24.2073 23.2869 24.6436C22.6761 25.2545 22.0652 25.5163 21.0179 25.4291C19.7961 25.3419 18.3997 24.9054 16.8288 24.2073C13.8614 22.7238 11.1562 20.6291 8.88689 18.011C7.14144 15.9166 5.91954 13.8219 5.0468 11.6399C4.69775 10.3309 4.43591 9.371 4.52313 8.32365C4.61035 7.71277 4.78496 7.27631 5.22123 6.84007C5.65768 6.49085 6.00671 6.05458 6.35578 5.70551C6.61762 5.44368 6.87946 5.18184 7.05389 5.00741C7.4031 4.74541 7.66494 4.57095 7.92676 4.57095C8.18859 4.57095 8.45043 4.74539 8.71224 5.00724C9.06129 5.35629 9.41035 5.70534 9.75959 6.05458C9.84681 6.1418 10.0213 6.31641 10.1959 6.49087L11.6796 7.97463C12.2905 8.58551 12.2905 9.02197 11.6796 9.5456L11.2432 9.89448C10.8067 10.3309 10.2831 10.8546 9.75942 11.2909C9.49775 11.5527 9.23592 11.9891 9.49775 12.6C9.8468 13.5599 10.4577 14.4327 11.2432 15.48C12.7268 17.3126 14.2978 18.7964 16.0432 19.8437C16.305 20.0183 16.5669 20.1927 16.8287 20.2801C17.0033 20.3674 17.0905 20.3674 17.2651 20.4548C17.7888 20.7166 18.3125 20.6294 18.7487 20.2801C19.3596 19.7565 19.8833 19.1456 20.4069 18.622L20.5815 18.5347C21.1052 18.0111 21.6289 18.0111 22.1525 18.5347C23.1124 19.4947 24.0725 20.4548 25.1198 21.5021C25.5558 21.7637 25.5558 22.3748 25.0323 22.8983L25.0324 22.8982Z" fill="#010101"/>
</svg>
