<svg width="36" height="36" viewBox="0 0 36 36" fill="none" xmlns="http://www.w3.org/2000/svg">
<path d="M18 6.47998C11.6378 6.47998 6.47998 11.6378 6.47998 18C6.47998 24.3622 11.6378 29.52 18 29.52C24.3622 29.52 29.52 24.3622 29.52 18C29.52 11.6378 24.3622 6.47998 18 6.47998ZM18 9.64808C22.6059 9.64808 26.352 13.3943 26.352 18.0001C26.352 22.606 22.6059 26.3521 18 26.3521C13.394 26.3521 9.64798 22.6058 9.64798 18.0001C9.64798 13.3942 13.394 9.64808 18 9.64808ZM18 10.8C14.0167 10.8 10.8 14.0167 10.8 18C10.8 21.9833 14.0167 25.2 18 25.2C21.9833 25.2 25.2 21.9833 25.2 18C25.2 14.0167 21.9833 10.8 18 10.8ZM18.5759 12.8159C21.114 12.8159 23.184 14.8857 23.184 17.424C23.1883 17.7284 22.9124 18.0082 22.6081 18.0082C22.3037 18.0082 22.0277 17.7284 22.0321 17.424C22.0321 15.5085 20.4917 13.9681 18.5762 13.9681C18.2746 13.9821 17.9872 13.7208 17.9731 13.419C17.9685 13.0319 18.2535 12.8373 18.5762 12.8159H18.5759Z" fill="black"/>
</svg>
