<svg width="32" height="32" viewBox="0 0 32 32" fill="none" xmlns="http://www.w3.org/2000/svg">
<path d="M14.27 5.0339C14.27 5.08926 14.247 5.14212 14.2066 5.17997C14.1661 5.21783 14.1118 5.23694 14.0566 5.23337C13.272 5.18033 12.593 5.15479 11.9813 5.15479C9.67822 5.15479 8.24769 5.52926 7.34218 6.36906C6.04252 7.543 5.61217 9.62762 5.8054 13.8063C5.8079 13.861 5.78808 13.9142 5.75022 13.9536C5.71255 13.9931 5.66022 14.0154 5.60558 14.0154L4.80005 14.0156V15.5367H12.4508V14.0156H11.5994C11.4962 14.0156 11.4097 13.9369 11.4003 13.834C11.2701 12.4267 11.4103 11.5321 11.8417 11.0185C12.1204 10.6867 12.5158 10.5097 13.0854 10.462C13.3745 10.4136 13.6972 10.4136 14.0701 10.4136C14.1806 10.4136 14.2701 10.5031 14.2701 10.6136V11.6942H15.7451L15.7449 4H14.2699L14.27 5.0339Z" fill="black"/>
<path d="M6.099 15.9392H11.0073V27.5648H6.099V15.9392Z" fill="black"/>
<path d="M16.1621 5.43848H27.7964V10.2979H16.1621V5.43848Z" fill="black"/>
</svg>
