<svg width="32" height="32" viewBox="0 0 32 32" fill="none" xmlns="http://www.w3.org/2000/svg">
<path fill-rule="evenodd" clip-rule="evenodd" d="M13.6899 14.4941C13.6899 14.7784 13.5187 15.0348 13.256 15.1434C12.9933 15.2522 12.691 15.192 12.4899 14.991C12.2889 14.7899 12.2287 14.4876 12.3375 14.2249C12.4461 13.9623 12.7025 13.791 12.9868 13.7908C13.1734 13.7908 13.3522 13.8648 13.4841 13.9966C13.6162 14.1287 13.6902 14.3075 13.69 14.4941L13.6899 14.4941ZM23.9077 9.27233H23.9079C24.9933 9.27191 26.0342 9.70274 26.8017 10.47C27.5691 11.2376 27.9999 12.2785 27.9994 13.3638V27.2967C27.9992 27.5695 27.8416 27.8177 27.5946 27.9334C27.3476 28.0493 27.0558 28.0118 26.8462 27.8374L22.5232 24.2347L14.1173 24.2345C13.0317 24.2354 11.9906 23.8045 11.2231 23.037C10.4555 22.2695 10.0247 21.2282 10.0254 20.1428V18.2094H9.47648L5.15348 21.8121H5.15369C4.94404 21.9867 4.6522 22.0242 4.40526 21.9085C4.15808 21.7928 4.00021 21.5448 4 21.2718V8.09195C3.99958 7.00657 4.43041 5.96547 5.19793 5.19793C5.96544 4.43038 7.00657 3.99957 8.09194 4H17.8825C18.9679 3.99937 20.0092 4.4302 20.7767 5.19771C21.5443 5.96525 21.9751 7.00657 21.9745 8.09195V9.27227L23.9077 9.27233ZM9.22187 16.8034H17.8827C18.5947 16.8025 19.2772 16.5193 19.7808 16.0157C20.2844 15.5121 20.5676 14.8295 20.5685 14.1175V8.09195C20.5687 7.37958 20.2859 6.6963 19.7821 6.1925C19.2783 5.68871 18.5951 5.4059 17.8827 5.40612H8.09211C7.37974 5.40591 6.69646 5.68873 6.19265 6.1925C5.68885 6.69627 5.40606 7.37953 5.40627 8.09195V19.7701L8.77157 16.9658C8.89799 16.8606 9.05733 16.8031 9.2219 16.8031L9.22187 16.8034ZM26.5939 13.3641C26.5939 12.6518 26.3109 11.9686 25.8071 11.465C25.3035 10.9615 24.6203 10.6787 23.9081 10.6787H21.9747V13.0378H23.5314C23.9197 13.0378 24.2344 13.3527 24.2344 13.741C24.2344 14.1293 23.9197 14.444 23.5314 14.444H21.9615C21.9173 15.0063 21.7563 15.5533 21.4888 16.0499H23.5314C23.9197 16.0499 24.2344 16.3646 24.2344 16.7529C24.2344 17.1412 23.9197 17.4561 23.5314 17.4561H20.2453C19.5554 17.9469 18.7296 18.2104 17.8827 18.2096H11.4316V20.143C11.4318 20.8552 11.7148 21.5382 12.2184 22.0418C12.7222 22.5456 13.4052 22.8286 14.1174 22.8286H22.7777C22.9422 22.8288 23.1016 22.8864 23.2284 22.9915L26.5937 25.7958L26.5939 13.3641ZM11.8088 9.59789H11.8086C11.809 9.28509 11.9335 8.9853 12.1551 8.76434C12.3765 8.54357 12.6767 8.41946 12.9895 8.41988C13.3023 8.4203 13.6021 8.54483 13.8231 8.76622C14.0441 8.98761 14.1682 9.28762 14.1678 9.60042C14.1676 9.91322 14.043 10.2132 13.8216 10.4342C13.6002 10.6552 13.3002 10.7793 12.9874 10.7791C12.8011 10.7791 12.6222 10.8531 12.4904 10.9849C12.3585 11.1166 12.2845 11.2954 12.2845 11.482V12.2343C12.2843 12.4211 12.3581 12.6001 12.4899 12.7322C12.622 12.8645 12.8008 12.9387 12.9876 12.9387C13.1742 12.9387 13.3533 12.8645 13.4851 12.7322C13.617 12.6001 13.691 12.4211 13.6906 12.2343V12.0879C14.3111 11.9125 14.8439 11.5118 15.1841 10.964C15.5244 10.4164 15.6479 9.76126 15.5303 9.12725C15.4127 8.49324 15.0625 7.92616 14.5485 7.53705C14.0342 7.14773 13.3933 6.9647 12.7512 7.02361C12.109 7.08252 11.5121 7.37918 11.0775 7.85551C10.6427 8.33183 10.4016 8.95323 10.4014 9.59792V9.59876C10.4011 9.78556 10.4752 9.96481 10.6072 10.0969C10.7393 10.2292 10.9186 10.3034 11.1054 10.3032C11.2922 10.3032 11.4712 10.2288 11.6031 10.0965C11.7351 9.96418 11.8089 9.78471 11.8085 9.59791L11.8088 9.59789ZM23.5315 19.0621H14.4939C14.1052 19.0621 13.7904 19.3772 13.7904 19.7657C13.7904 20.1544 14.1052 20.4693 14.4939 20.4693H23.5315C23.92 20.4693 24.2351 20.1544 24.2351 19.7657C24.2351 19.3772 23.92 19.0621 23.5315 19.0621Z" fill="black"/>
</svg>
