<svg width="32" height="32" viewBox="0 0 32 32" fill="none" xmlns="http://www.w3.org/2000/svg">
<path d="M17.9666 12.7686C18.3277 12.966 18.7639 12.8053 18.9436 12.4114C19.1235 12.0167 18.9771 11.5364 18.6181 11.3392L17.3259 10.6304C17.1206 10.5177 16.8796 10.5177 16.6742 10.6304L10.8566 13.8225C10.8493 13.8264 10.8449 13.8344 10.8384 13.8385C10.8261 13.8457 10.8123 13.8498 10.7999 13.8578C10.739 13.8992 10.6873 13.9504 10.6415 14.0071C10.6306 14.0206 10.6226 14.0358 10.6124 14.051C10.5695 14.1125 10.5352 14.1788 10.5097 14.2507C10.5032 14.2691 10.4951 14.2851 10.49 14.3042C10.4689 14.3793 10.4551 14.4569 10.4551 14.5368V19.6449C10.4551 19.9477 10.6109 20.2242 10.8576 20.36L16.6752 23.5521C16.6854 23.5576 16.6978 23.5553 16.7087 23.5608C16.8018 23.6063 16.9001 23.6368 17.0005 23.6368C17.101 23.6368 17.1993 23.6065 17.2924 23.5608C17.3033 23.556 17.315 23.5576 17.3259 23.5521L23.1435 20.36C23.3903 20.2241 23.546 19.9477 23.546 19.6449V14.5368C23.546 14.4562 23.5322 14.3786 23.511 14.3042C23.506 14.2858 23.4979 14.2691 23.4914 14.2507C23.4659 14.1788 23.4317 14.1116 23.3887 14.051C23.3784 14.0365 23.3705 14.0213 23.3596 14.0071C23.3138 13.9504 23.2613 13.8985 23.2008 13.8576C23.1885 13.8496 23.1747 13.8457 23.1623 13.8384C23.155 13.8344 23.1514 13.8264 23.1441 13.8223L20.5115 12.3777C20.1511 12.1803 19.7143 12.3409 19.5345 12.7349C19.3546 13.1296 19.5002 13.6099 19.86 13.8071L21.1902 14.5374L20.0333 15.1727L15.844 12.874L16.9995 12.2389L17.9666 12.7686ZM11.9102 15.8304L16.2718 18.2233V21.5439L11.9102 19.1509V15.8304ZM22.0898 19.1509L17.7283 21.544V18.2234L19.4573 17.2749V17.7295C19.4573 18.1713 19.7835 18.5285 20.1853 18.5285C20.5872 18.5285 20.9134 18.1713 20.9134 17.7295V16.4759L22.0899 15.8303L22.0898 19.1509ZM18.4044 16.0653L17.0001 16.8364L12.8108 14.5376L14.2152 13.7673L18.4044 16.0653Z" fill="black"/>
<path d="M17.6032 5.76859L17.9059 5.46343C18.2384 5.12823 18.2384 4.58661 17.9059 4.2514C17.5734 3.91619 17.0362 3.9162 16.7037 4.2514L15.0034 5.96565C14.6709 6.30085 14.6709 6.84247 15.0034 7.17768L16.7037 8.89193C16.8696 9.05915 17.0872 9.14314 17.3049 9.14314C17.5226 9.14314 17.7403 9.05915 17.9059 8.89193C18.2384 8.55673 18.2384 8.01512 17.9059 7.67991L17.742 7.5146C22.5804 8.0949 26.2087 11.8953 26.2087 16.654C26.2087 21.9648 21.8328 26.2857 16.4545 26.2857C11.0763 26.2857 6.70035 21.9648 6.70035 16.654C6.70035 13.8487 7.93651 11.188 10.0908 9.35473C10.4497 9.04976 10.4956 8.50887 10.192 8.14711C9.88927 7.78551 9.35373 7.73825 8.99413 8.04514C6.45555 10.2042 5 13.3422 5 16.6541C5 22.9101 10.1385 28 16.4545 28C22.7706 28 27.9091 22.9106 27.9091 16.6541C27.9091 10.8908 23.4681 6.30246 17.6032 5.76859Z" fill="black"/>
</svg>
