<svg width="352" height="352" viewBox="0 0 352 352" fill="none" xmlns="http://www.w3.org/2000/svg">
<path fill-rule="evenodd" clip-rule="evenodd" d="M176.031 351.812C273.113 351.812 351.812 273.113 351.812 176.031C351.812 78.9499 273.113 0.25 176.031 0.25C78.9499 0.25 0.25 78.9499 0.25 176.031C0.25 273.113 78.9499 351.812 176.031 351.812ZM176.031 337.75C265.346 337.75 337.75 265.346 337.75 176.031C337.75 86.7164 265.346 14.3125 176.031 14.3125C86.7164 14.3125 14.3125 86.7164 14.3125 176.031C14.3125 265.346 86.7164 337.75 176.031 337.75ZM112.75 154.938C120.517 154.938 126.813 148.642 126.813 140.875C126.813 133.109 120.517 126.813 112.75 126.813C104.983 126.813 98.6875 133.109 98.6875 140.875C98.6875 148.642 104.983 154.938 112.75 154.938ZM239.313 154.938C247.079 154.938 253.375 148.642 253.375 140.875C253.375 133.109 247.079 126.813 239.313 126.813C231.546 126.813 225.25 133.109 225.25 140.875C225.25 148.642 231.546 154.938 239.313 154.938ZM175.769 239.313C143.366 239.313 120.088 251.634 108.052 259.966C104.41 262.487 98.6875 259.864 98.6875 255.434C98.6875 254.116 99.1976 252.865 100.187 251.994C106.604 246.338 133.377 225.25 175.769 225.25C218.118 225.25 245.272 246.296 251.83 251.977C252.848 252.858 253.375 254.134 253.375 255.481C253.375 259.928 247.671 262.57 244.002 260.055C231.848 251.722 208.288 239.313 175.769 239.313Z" fill="#0068FF" fill-opacity="0.4"/>
</svg>
