<svg width="23" height="22" viewBox="0 0 23 22" fill="none" xmlns="http://www.w3.org/2000/svg">
<path d="M16.4749 14.9177C17.7557 13.3104 18.4588 11.2763 18.4588 9.21686C18.4588 4.14382 14.3151 0 9.21686 0C4.1187 0 0 4.14391 0 9.21686C0 14.2899 4.14373 18.4337 9.21686 18.4337C11.2511 18.4337 13.2853 17.7305 14.9177 16.4498L20.468 22L22.0502 20.4178L16.4749 14.9177ZM9.21695 16.2488C5.3745 16.2488 2.23524 13.1095 2.23524 9.26709C2.23524 5.42464 5.3745 2.28538 9.21695 2.28538C13.0594 2.28538 16.1987 5.42464 16.1987 9.26709C16.1987 13.1095 13.0594 16.2488 9.21695 16.2488Z" fill="white"/>
</svg>
