<svg width="40" height="40" viewBox="0 0 40 40" fill="none" xmlns="http://www.w3.org/2000/svg">
<path d="M25.4749 23.9177C26.7557 22.3104 27.4588 20.2763 27.4588 18.2169C27.4588 13.1438 23.3151 9 18.2169 9C13.1187 9 9 13.1439 9 18.2169C9 23.2899 13.1437 27.4337 18.2169 27.4337C20.2511 27.4337 22.2853 26.7305 23.9177 25.4498L29.468 31L31.0502 29.4178L25.4749 23.9177ZM18.2169 25.2488C14.3745 25.2488 11.2352 22.1095 11.2352 18.2671C11.2352 14.4246 14.3745 11.2854 18.2169 11.2854C22.0594 11.2854 25.1987 14.4246 25.1987 18.2671C25.1987 22.1095 22.0594 25.2488 18.2169 25.2488Z" fill="black"/>
</svg>
