<svg width="15" height="28" viewBox="0 0 15 28" fill="none" xmlns="http://www.w3.org/2000/svg">
<path d="M0.0122343 14.1965C0.0554266 14.4958 0.191703 14.774 0.401969 14.9913L11.922 26.9913H11.9223C12.1781 27.2943 12.5474 27.4785 12.9435 27.5002C13.3393 27.5223 13.7266 27.3797 14.0142 27.1068C14.3019 26.8336 14.4642 26.4539 14.4629 26.0575C14.4616 25.6611 14.2965 25.2824 14.0072 25.0115L3.43179 14.0015L14.0072 2.99155V2.99121C14.2965 2.72 14.4616 2.34166 14.4629 1.94524C14.4642 1.54848 14.3019 1.16912 14.0142 0.895925C13.7266 0.623045 13.3392 0.480408 12.9435 0.502171C12.5474 0.524269 12.1781 0.708416 11.9223 1.01143L0.402304 13.0114H0.401969C0.0989519 13.3265 -0.04468 13.7624 0.0122343 14.1963V14.1965Z" fill="white" fill-opacity="0.8"/>
</svg>
