<svg width="15" height="28" viewBox="0 0 15 28" fill="none" xmlns="http://www.w3.org/2000/svg">
<path d="M14.9878 14.1965C14.9446 14.4958 14.8083 14.774 14.598 14.9913L3.07803 26.9913H3.0777C2.82189 27.2943 2.45258 27.4785 2.0565 27.5002C1.66074 27.5223 1.27335 27.3797 0.985754 27.1068C0.69814 26.8336 0.535754 26.4539 0.537091 26.0575C0.53843 25.6611 0.703497 25.2824 0.992783 25.0115L11.5682 14.0015L0.992783 2.99155V2.99121C0.703497 2.72 0.538428 2.34166 0.537091 1.94524C0.535752 1.54848 0.69814 1.16912 0.985754 0.895925C1.27337 0.623045 1.66076 0.480408 2.0565 0.502171C2.45259 0.524269 2.8219 0.708416 3.0777 1.01143L14.5977 13.0114H14.598C14.901 13.3265 15.0447 13.7624 14.9878 14.1963V14.1965Z" fill="white" fill-opacity="0.8"/>
</svg>
