<svg width="22" height="24" viewBox="0 0 22 24" fill="none" xmlns="http://www.w3.org/2000/svg">
<path d="M1.74516 9.2942C1.53061 9.59689 1.11436 9.67403 0.805803 9.46832C0.496964 9.26287 0.407766 8.84903 0.604106 8.53458L6.08982 0.306007C6.2575 0.0547543 6.56982 -0.0574765 6.85885 0.0301167C7.14786 0.117436 7.34582 0.383685 7.34608 0.685831V22.6287C7.34608 23.0074 7.03912 23.3144 6.66037 23.3144C6.28162 23.3144 5.97465 23.0074 5.97465 22.6287V2.95006L1.74516 9.2942ZM15.5746 20.3657L19.8041 14.0215C19.9024 13.8643 20.0599 13.7534 20.241 13.7143C20.4223 13.6752 20.6115 13.7111 20.7657 13.8139C20.92 13.9165 21.0264 14.0775 21.0601 14.2596C21.0939 14.4418 21.0523 14.6301 20.9452 14.7812L15.4595 23.0097C15.2918 23.2613 14.9792 23.3735 14.6899 23.2856C14.4006 23.1978 14.2029 22.931 14.2032 22.6286V0.685714C14.2032 0.306967 14.5102 0 14.8889 0C15.2677 0 15.5746 0.306967 15.5746 0.685714L15.5746 20.3657Z" fill="#00215E"/>
</svg>
