<svg width="320" height="320" viewBox="0 0 320 320" fill="none" xmlns="http://www.w3.org/2000/svg">
<path d="M260.521 93.1643C257.302 90.1369 252.246 90.2849 249.213 93.4963L131.841 217.982L62.6114 161.793C59.1823 159.009 54.1436 159.536 51.3586 162.963C48.574 166.392 49.0985 171.43 52.5276 174.215L127.528 235.083C129.006 236.283 130.787 236.872 132.567 236.872C134.698 236.872 136.822 236.024 138.39 234.361L260.854 104.475C263.884 101.261 263.736 96.1992 260.522 93.1692L260.521 93.1643ZM160 0C71.7786 0 0 71.7786 0 160C0 248.221 71.7786 320 160 320C248.221 320 320 248.221 320 160C320 71.7786 248.221 0 160 0ZM160 304C80.6 304 16 239.404 16 160C16 80.6 80.5957 16 160 16C239.4 16 304 80.5957 304 160C304 239.4 239.401 304 160 304Z" fill="#0068FF" fill-opacity="0.8"/>
</svg>
