<svg width="48" height="48" viewBox="0 0 48 48" fill="none" xmlns="http://www.w3.org/2000/svg">
<path d="M33.95 15L30.204 34.126C30.204 34.126 30.043 35 28.959 35C28.383 35 28.086 34.726 28.086 34.726L19.972 27.993L16.002 25.992L10.907 24.637C10.907 24.637 10 24.375 10 23.625C10 23 10.933 22.702 10.933 22.702L32.249 14.234C32.248 14.233 32.9 13.999 33.375 14C33.667 14 34 14.125 34 14.5C34 14.75 33.95 15 33.95 15Z" fill="white"/>
<path d="M23.0001 30.505L19.5741 33.879C19.5741 33.879 19.4251 33.994 19.2261 33.999C19.1571 34.001 19.0831 33.99 19.0071 33.956L19.9711 27.991L23.0001 30.505Z" fill="#B0BEC5"/>
<path d="M29.897 18.196C29.728 17.976 29.416 17.936 29.196 18.103L16 26C16 26 18.106 31.892 18.427 32.912C18.749 33.933 19.007 33.957 19.007 33.957L19.971 27.992L29.803 18.896C30.023 18.729 30.064 18.416 29.897 18.196Z" fill="#CFD8DC"/>
</svg>
