<svg width="40" height="40" viewBox="0 0 40 40" fill="none" xmlns="http://www.w3.org/2000/svg">
<path d="M20 37.5C29.665 37.5 37.5 29.665 37.5 20C37.5 10.335 29.665 2.5 20 2.5C10.335 2.5 2.5 10.335 2.5 20C2.5 29.665 10.335 37.5 20 37.5Z" stroke="#F8F8F8" stroke-width="2" stroke-miterlimit="10" stroke-linecap="round" stroke-linejoin="round"/>
<path d="M20 22.5C23.4518 22.5 26.25 19.7018 26.25 16.25C26.25 12.7982 23.4518 10 20 10C16.5482 10 13.75 12.7982 13.75 16.25C13.75 19.7018 16.5482 22.5 20 22.5Z" stroke="#F8F8F8" stroke-width="2" stroke-miterlimit="10" stroke-linecap="round" stroke-linejoin="round"/>
<path d="M6.75 31.375C9 26.25 14 22.625 20 22.625C26 22.625 31.125 26.25 33.25 31.375" stroke="#F8F8F8" stroke-width="2" stroke-miterlimit="10" stroke-linecap="round" stroke-linejoin="round"/>
</svg>
