<svg width="24" height="24" viewBox="0 0 24 24" fill="none" xmlns="http://www.w3.org/2000/svg">
<path d="M11.7621 14.2624C8.38286 14.2624 5.63086 11.5104 5.63086 8.1312C5.63086 4.752 8.38286 2 11.7621 2C15.1413 2 17.8933 4.752 17.8933 8.1312C17.8933 11.5104 15.1413 14.2624 11.7621 14.2624ZM11.7621 3.7472C9.34926 3.7472 7.38446 5.712 7.38446 8.1248C7.38446 10.5376 9.34926 12.5024 11.7621 12.5024C14.1749 12.5024 16.1397 10.5376 16.1397 8.1248C16.1397 5.712 14.1749 3.7472 11.7621 3.7472Z" fill="black"/>
<path d="M20.4798 20.3948C20.5278 20.8767 20.1306 21.2704 19.6464 21.2704C19.1622 21.2704 18.7754 20.8759 18.7153 20.3954C18.2836 16.9415 15.3309 14.2624 11.7616 14.2624C8.19229 14.2624 5.23956 16.9415 4.80789 20.3954C4.74784 20.8759 4.36104 21.2704 3.8768 21.2704C3.39256 21.2704 2.99538 20.8767 3.04338 20.3948C3.48393 15.9725 7.22505 12.5088 11.7616 12.5088C16.2981 12.5088 20.0393 15.9725 20.4798 20.3948Z" fill="black"/>
</svg>
