<svg width="34" height="34" viewBox="0 0 34 34" fill="none" xmlns="http://www.w3.org/2000/svg">
<path d="M20.2376 0H13.7615C6.97846 0 1.45996 5.51721 1.45996 12.2989V18.1328C1.45996 23.1831 4.56335 27.722 9.22976 29.5706V33.3525C9.22976 33.6089 9.38062 33.8407 9.61501 33.9443C9.69919 33.9819 9.78854 34 9.87724 34C10.0346 34 10.1906 33.9424 10.3117 33.8323L14.0665 30.4317H20.2376C27.0207 30.4317 32.5392 24.9145 32.5392 18.1328V12.2989C32.5392 5.51721 27.0207 0 20.2376 0ZM31.2442 18.1328C31.2442 24.2003 26.3071 29.1368 20.2376 29.1368H13.8165C13.656 29.1368 13.5012 29.1963 13.3821 29.3044L10.5247 31.8924V29.1219C10.5247 28.8473 10.3518 28.6026 10.0929 28.5119C5.70421 26.9599 2.75493 22.7888 2.75493 18.1328V12.2989C2.75493 6.23138 7.69264 1.29497 13.7615 1.29497H20.2376C26.3071 1.29497 31.2442 6.23138 31.2442 12.2989V18.1328Z" fill="white"/>
<path d="M25.5566 19.7437L21.5772 17.159C21.1421 16.876 20.6241 16.7802 20.1171 16.8851C19.6095 16.9919 19.1731 17.2917 18.8901 17.7287L18.703 18.0162C16.9807 17.4471 15.0816 16.72 13.9446 13.4288L14.4154 13.0196C15.2234 12.3171 15.3082 11.0882 14.6057 10.2788L11.4926 6.69757C11.2582 6.42757 10.849 6.39973 10.579 6.63347L8.62426 8.33247C6.90973 9.82297 7.71067 12.0277 7.97419 12.7522C7.98585 12.7846 8.00009 12.8156 8.01693 12.8461C8.08491 12.9678 9.70815 15.8646 12.3298 18.5349C14.9618 21.2161 19.7137 23.6921 19.8594 23.7639C20.402 24.1162 21.0126 24.2852 21.6167 24.2852C22.6772 24.2852 23.7171 23.7652 24.3374 22.8121L25.7476 20.6405C25.9419 20.3394 25.8564 19.9386 25.5566 19.7437ZM23.2509 22.1064C22.6675 23.0051 21.4619 23.2602 20.5101 22.6464C20.4629 22.6218 15.742 20.1633 13.2538 17.6284C10.928 15.2592 9.38376 12.6272 9.17333 12.2601C8.66052 10.822 8.75117 9.93822 9.47376 9.31016L10.9403 8.03592L13.6287 11.1283C13.8676 11.4028 13.8397 11.8043 13.5665 12.0419L12.772 12.7321C12.5784 12.9005 12.502 13.1666 12.5778 13.4113C13.9323 17.8129 16.5663 18.6773 18.4893 19.3086L18.7697 19.4012C19.05 19.4957 19.3569 19.3876 19.5175 19.1403L19.9766 18.4332C20.0711 18.2869 20.2162 18.1878 20.3845 18.1522C20.5535 18.1159 20.7257 18.1496 20.8721 18.2448L24.3089 20.4767L23.2509 22.1064Z" fill="white"/>
<path d="M18.4777 10.5197C18.1333 10.4206 17.7752 10.6207 17.6774 10.9651C17.5797 11.3089 17.7791 11.667 18.1229 11.7648C19.0877 12.0393 19.8562 12.8092 20.1282 13.7746C20.2085 14.0595 20.4681 14.2466 20.751 14.2466C20.8093 14.2466 20.8682 14.2388 20.9272 14.2226C21.271 14.1255 21.4717 13.7681 21.3746 13.4236C20.9815 12.0289 19.8711 10.9159 18.4777 10.5197Z" fill="white"/>
<path d="M23.4051 14.3864C23.4633 14.3864 23.5223 14.3787 23.5812 14.3625C23.9256 14.2654 24.1257 13.9073 24.0286 13.5635C23.2646 10.8551 21.1091 8.69506 18.4026 7.92455C18.0588 7.82548 17.7007 8.02685 17.603 8.37067C17.5052 8.71448 17.7046 9.07254 18.0484 9.17031C20.3256 9.81779 22.1392 11.6366 22.7822 13.9151C22.8631 14.2 23.1221 14.3864 23.4051 14.3864Z" fill="white"/>
<path d="M18.1235 4.90922C17.779 4.81015 17.421 5.01023 17.3232 5.35534C17.2254 5.69915 17.4248 6.05721 17.7687 6.15498C21.627 7.25246 24.7006 10.3332 25.7897 14.1941C25.87 14.479 26.1296 14.6661 26.4126 14.6661C26.4708 14.6661 26.5298 14.6584 26.5887 14.6422C26.9325 14.5451 27.1332 14.187 27.0361 13.8432C25.8259 9.55232 22.4111 6.12973 18.1235 4.90922Z" fill="white"/>
</svg>
