<svg width="30" height="30" viewBox="0 0 30 30" fill="none" xmlns="http://www.w3.org/2000/svg">
<g clip-path="url(#clip0_545_36616)">
<path d="M22.1985 17.2384C22.14 17.2104 19.9529 16.1334 19.5643 15.9935C19.4056 15.9365 19.2357 15.8809 19.0549 15.8809C18.7596 15.8809 18.5115 16.0281 18.3182 16.3172C18.0998 16.6419 17.4384 17.415 17.234 17.6459C17.2073 17.6764 17.1709 17.7129 17.1491 17.7129C17.1295 17.7129 16.791 17.5735 16.6886 17.529C14.3424 16.5098 12.5616 14.0591 12.3174 13.6458C12.2826 13.5864 12.2811 13.5594 12.2808 13.5594C12.2894 13.528 12.3683 13.4489 12.409 13.4081C12.5281 13.2902 12.6572 13.1348 12.7821 12.9845C12.8412 12.9133 12.9004 12.842 12.9585 12.7748C13.1397 12.5641 13.2204 12.4004 13.3139 12.2109L13.3629 12.1124C13.5912 11.6588 13.3962 11.276 13.3332 11.1524C13.2814 11.049 12.358 8.8202 12.2598 8.58604C12.0237 8.02101 11.7117 7.75792 11.2782 7.75792C11.2379 7.75792 11.2782 7.75792 11.1095 7.76503C10.904 7.7737 9.78537 7.92098 9.29076 8.23276C8.76624 8.56344 7.87891 9.61753 7.87891 11.4713C7.87891 13.1397 8.93767 14.715 9.39225 15.3141C9.40355 15.3292 9.4243 15.3599 9.45439 15.4039C11.1953 17.9463 13.3655 19.8305 15.5655 20.7094C17.6835 21.5554 18.6865 21.6532 19.2567 21.6532C19.2568 21.6532 19.2568 21.6532 19.2568 21.6532C19.4964 21.6532 19.6882 21.6344 19.8574 21.6177L19.9647 21.6075C20.6964 21.5426 22.3043 20.7094 22.6701 19.6931C22.9582 18.8925 23.0342 18.0178 22.8425 17.7004C22.7112 17.4845 22.4849 17.3759 22.1985 17.2384Z" fill="white"/>
<path d="M15.268 0C7.14305 0 0.53292 6.56045 0.53292 14.6243C0.53292 17.2325 1.23091 19.7855 2.55315 22.0199L0.0223357 29.4853C-0.0248071 29.6245 0.0102578 29.7784 0.113212 29.8832C0.187531 29.9591 0.288342 30 0.391297 30C0.430745 30 0.470485 29.9941 0.509251 29.9817L8.29367 27.508C10.4239 28.6462 12.8315 29.247 15.2681 29.247C23.3922 29.2471 30.0017 22.6873 30.0017 14.6243C30.0017 6.56045 23.3922 0 15.268 0ZM15.268 26.2007C12.9752 26.2007 10.7545 25.5387 8.84565 24.2861C8.78146 24.2439 8.70695 24.2223 8.63195 24.2223C8.5923 24.2223 8.55256 24.2283 8.51389 24.2406L4.61438 25.4801L5.87321 21.7663C5.91393 21.6461 5.89357 21.5135 5.81857 21.411C4.36493 19.4248 3.59652 17.0781 3.59652 14.6243C3.59652 8.24026 8.8323 3.04636 15.2679 3.04636C21.7027 3.04636 26.9379 8.24026 26.9379 14.6243C26.938 21.0076 21.7029 26.2007 15.268 26.2007Z" fill="white"/>
</g>
<defs>
<clipPath id="clip0_545_36616">
<rect width="30" height="30" fill="white"/>
</clipPath>
</defs>
</svg>
