<svg xmlns="http://www.w3.org/2000/svg" viewBox="0 0 18.31 18.31"><defs><style>.cls-1{fill:#fff;}.cls-2{fill:#b10000;}.cls-3{fill:#00215e;}.cls-4{fill:#0068ff;}</style></defs><g id="Слой_2" data-name="Слой 2"><g id="Слой_1-2" data-name="Слой 1"><rect class="cls-1" x="0.2" y="0.2" width="17.9" height="17.9" rx="3.81"/><path class="cls-1" d="M14.3.4A3.61,3.61,0,0,1,17.9,4V14.3a3.6,3.6,0,0,1-3.6,3.6H4A3.61,3.61,0,0,1,.4,14.3V4A3.61,3.61,0,0,1,4,.4H14.3m0-.4H4A4,4,0,0,0,0,4V14.3a4,4,0,0,0,4,4H14.3a4,4,0,0,0,4-4V4a4,4,0,0,0-4-4Z"/><circle class="cls-2" cx="9.16" cy="9.16" r="0.94"/><path class="cls-3" d="M7.29,10.08a2.11,2.11,0,0,1,.26-2.25L6.82,6.37,2,12.7h8l-.73-1.46A2.1,2.1,0,0,1,7.29,10.08Z"/><path class="cls-4" d="M11,8.23a2.07,2.07,0,0,1-.25,2.24l.72,1.47,4.81-6.33H8.34l.73,1.47A2.06,2.06,0,0,1,11,8.23Z"/></g></g></svg>